<svg id="Layer_1" data-name="Layer 1" xmlns="http://www.w3.org/2000/svg" viewBox="0 0 1000 1000"><defs><style>.cls-1{fill:#f4364c;}.cls-2{font-size:299.21px;fill:#fff;font-family:MyriadPro-Bold, Myriad Pro;font-weight:700;}</style></defs><title>day1</title><path d="M641.56,695c-1.15,19-2.07,38-3.63,57-.42,5.13-2.31,10.3-4.34,15.11-3.1,7.32-9.49,9.69-17,9.57s-14.25-2.56-16.56-10.16c-2.52-8.3-4.88-17-5.07-25.58q-.91-42.12,0-84.26c.18-8.9,2.15-17.94,4.53-26.58,2.65-9.67,8.55-13.25,18.27-13.14s15.88,3.58,18,13.37c2.53,11.45,3.68,23.28,4.53,35,.71,9.83.15,19.74.15,29.62Z"/><path class="cls-1" d="M876.19,150.63q-35.28,0-70.55,0h-5.35V92.12H768.4v58.21H658.86V92.15h-32v58.2H517.23V92.18H485.38v58.09H375.67V92.07H343.83v58.19H233.91V92.12H202.07v58.45H121.2V904.49c0,2-.07,3.89-.1,5.84h760V151.16A45.46,45.46,0,0,0,876.19,150.63Zm-375,683.48H167.52V359.33H834.68v171H501.18Z"/><text class="cls-2" transform="translate(531.88 800.58)">01</text></svg>