<?xml version="1.0" encoding="utf-8"?>
<!-- Generator: Adobe Illustrator 22.0.0, SVG Export Plug-In . SVG Version: 6.00 Build 0)  -->
<svg version="1.1" id="Layer_1" xmlns="http://www.w3.org/2000/svg" xmlns:xlink="http://www.w3.org/1999/xlink" x="0px" y="0px"
	 viewBox="0 0 1000 1000" style="enable-background:new 0 0 1000 1000;" xml:space="preserve">
<style type="text/css">
	.st0{fill:#F4364C;}
	.st1{fill:#FFFFFF;}
	.st2{font-family:'MyriadPro-Bold';}
	.st3{font-size:299.2073px;}
</style>
<path d="M641.6,695c-1.2,19-2.1,38-3.6,57c-0.4,5.1-2.3,10.3-4.3,15.1c-3.1,7.3-9.5,9.7-17,9.6c-7.5-0.1-14.2-2.6-16.6-10.2
	c-2.5-8.3-4.9-17-5.1-25.6c-0.6-28.1-0.6-56.2,0-84.3c0.2-8.9,2.1-17.9,4.5-26.6c2.7-9.7,8.5-13.2,18.3-13.1
	c9.9,0.1,15.9,3.6,18.1,13.4c2.5,11.5,3.7,23.3,4.5,35c0.7,9.8,0.1,19.7,0.1,29.6C640.8,695,641.2,695,641.6,695z"/>
<path class="st0" d="M876.2,150.6c-23.5,0-47,0-70.6,0c-1.6,0-3.3,0-5.3,0c0-19.7,0-39,0-58.5c-10.8,0-21.1,0-31.9,0
	c0,19.4,0,38.7,0,58.2c-36.6,0-72.9,0-109.5,0c0-19.4,0-38.6,0-58.2c-10.8,0-21.1,0-31.9,0c0,19.4,0,38.7,0,58.2
	c-36.7,0-73,0-109.7,0c0-19.3,0-38.6,0-58.2c-10.7,0-21.1,0-31.8,0c0,19.2,0,38.5,0,58.1c-36.6,0-72.9,0-109.7,0
	c0-19.3,0-38.6,0-58.2c-10.9,0-21.1,0-31.8,0c0,19.3,0,38.6,0,58.2c-36.8,0-73.2,0-109.9,0c0-19.3,0-38.6,0-58.1
	c-10.7,0-21.1,0-31.8,0c0,19.4,0,38.7,0,58.5c-27,0-53.7,0-80.9,0c0,2.4,0,4.3,0,6.2c0,249.2,0,498.5,0,747.7c0,1.9-0.1,3.9-0.1,5.8
	c253.3,0,506.7,0,760,0c0-253.1,0-506.1,0-759.2C879.5,151,877.8,150.6,876.2,150.6z M501.2,834.1c-111.4,0-222.4,0-333.7,0
	c0-158.2,0-316.3,0-474.8c222.3,0,444.5,0,667.2,0c0,57.1,0,113.8,0,171c-111.2,0-222.2,0-333.5,0
	C501.2,631.9,501.2,732.8,501.2,834.1z"/>
<text transform="matrix(1 0 0 1 531.8848 800.5752)" class="st1 st2 st3">02</text>
</svg>
