<svg id="Layer_1" data-name="Layer 1" xmlns="http://www.w3.org/2000/svg" viewBox="0 0 1000 1000"><defs><style>.cls-1{fill:#d6dae8;}</style></defs><title>eventsbg</title><path class="cls-1" d="M538,868.23c-1.07-2.6-1.86-4.5-2.87-7l-10.11,2.59c6,51.5-30.7,80.63-61.92,84.63a72.51,72.51,0,0,1-79.32-52.25c-9.83-34.53,7.67-71,40.78-85.76,28.25-12.61,73.63-7.31,96.08,38.47l10.62-3.4c-.18-2.28-.32-4.12-.52-6.66,7.58-2.2,15.14-4.58,22.8-6.59a859.27,859.27,0,0,0,204.1-83.14,486.64,486.64,0,0,0,127.9-103.78c27.42-31.3,42.22-67.84,39.3-109.44-3.85-54.89-33.49-92.81-84.13-112.81-48.81-19.27-96.83-14.56-141.91,12.36a423,423,0,0,0-113.49,98.35c-33.12,41.15-64.83,83.44-97.93,124.62-24.71,30.73-51.27,60-84.15,82.31-34.62,23.54-72.86,36.91-115.13,35.54-32.58-1-63.13-9.68-87.58-32.41-32.25-30-42.32-67.79-35.55-110.51,2.33-14.74,5.74-29.33,8.91-43.93,1.56-7.15.31-13-4.88-18.5-15.45-16.43-23.28-36.23-25-58.65-2-26.75,2.89-52.88,6.75-79.1,2.33-15.83,4.88-31.63,7.39-47.43.76-4.78,1.14-9.78,8-10.07,1.14,0,2.79-3.24,3.11-5.16,5.61-32.78,10.84-65.63,16.58-98.39,8.69-49.67,21.11-98.31,40.34-145.11C238.75,96.65,258.31,73,287.9,58c16.73-8.46,33.92-8.91,51.47-3.08C344,56.43,348.51,58.12,353,60c4.23,1.73,8.1,3.46,11.64-1.52.73-1,3.8-.89,5.65-.53,6,1.17,12,2.22,17.69,4.21a50.74,50.74,0,0,1,14.35,7.3c5.45,4.25,6.77,10.63,4.4,17.18-2.5,6.88-7.55,11.47-15,11.67a41.8,41.8,0,0,1-14.08-2.47,72,72,0,0,1-15.95-7.43c-2.8-1.82-5.63-5.4-6.11-8.54-.64-4.21-2.41-5.74-6-6.61-9.21-2.21-18.34-4.7-27.57-6.8-12-2.73-22.92.22-33.09,6.76-20.76,13.33-33.69,33.1-45.08,54.26-16.76,31.11-26.45,64.79-33.8,98.9-9.71,45-17,90.58-25.36,135.91-.61,3.31-.86,6.7-1.66,10s-.7,5.53,2.73,7.88c1.82,1.26,2.36,5.63,2.1,8.47-2.87,32.09-6,64.15-9.06,96.21-1.41,14.79-1.36,29.37,4.45,43.5,11.61,28.22,37.64,40.59,70.14,33,19.07-4.43,34.56-14.85,48.35-28.34,20.61-20.16,41.44-40.09,62.06-60.23,3.88-3.78,7.38-6.6,11.77-1a6.69,6.69,0,0,0,1.87-.95c42.85-47.55,86-94.85,123.5-146.9,16.37-22.7,29.13-47.34,39.27-73.27,9.06-23.18,9-46.51-2.74-69.06a45.13,45.13,0,0,0-19.66-19.88c-7.3-3.75-14.35-8-21.49-12-3.91-2.22-7.62-5.61-12.35-1.42a3.54,3.54,0,0,1-3,.12c-9.47-3.93-19.15-7.49-28.25-12.15-8-4.12-9.18-9-5.87-17.41.54-1.37,1.16-2.71,1.79-4,6.23-13.16,17.53-15.63,29.12-6.59a135.5,135.5,0,0,0,13.43,9c3.73,2.24,6.51,4.74,5.32,9.54-.86,3.47.65,5.23,3.66,6.94,9.16,5.18,17.94,11,27.14,16.12,23.48,13,32.52,34,33.91,59.58,1,18.06-2.77,35-9.28,51.75-15.86,40.79-40.11,76.37-68.28,109.29-30.51,35.66-62,70.45-93.21,105.54-2.65,3-5.2,5.42-1.92,9.64.67.87,0,3.72-1,4.83-26.11,29.45-51.63,59.52-82.07,84.72-21.6,17.87-47.3,24.31-74.81,23.8-8.15-.16-13.59,2.55-17.8,9.28-8.14,13-17.76,25.2-19.49,41.23-5.07,47.11,27.09,88.33,75.18,95.63,39.47,6,75.53-4.62,109.44-24.12,33.67-19.35,59.8-47,83.11-77.44,21.38-27.9,41.58-56.72,63.18-84.44,30.94-39.71,63.73-78,101.67-111.16C664,414.43,707.51,390.2,758.6,383.22c62.13-8.48,117.25,9.26,158,56.39,41,47.44,53.5,103.64,29.62,164.52-18.1,46.14-48.44,83.21-87,113.45-69.22,54.3-146,94.88-229.59,122.23-27.59,9-55.4,17.42-83.11,26.08C543.94,866.7,541.3,867.34,538,868.23Z"/></svg>