<svg xmlns="http://www.w3.org/2000/svg" width="32" height="32" viewBox="0 0 32 32">
  <path id="Path_268" data-name="Path 268" d="M892,814.813v22.375a.769.769,0,0,0-.055.142,5.428,5.428,0,0,1-3.083,4.124,11.408,11.408,0,0,1-1.675.547H881a1.476,1.476,0,0,1-.015-.155q0-5.842,0-11.684a2.327,2.327,0,0,1,.03-.258h5.272v-5.346H881c0-.8-.028-1.575.008-2.343a1.189,1.189,0,0,1,1.308-1.2h3.655c.109,0,.218-.01.319-.014v-5.294c-1.564,0-3.1-.011-4.644.008a3.6,3.6,0,0,0-1.041.181,6.509,6.509,0,0,0-4.354,4.753,9.424,9.424,0,0,0-.249,2.788c0,.371,0,.742,0,1.139h-3.882a2.071,2.071,0,0,0-.029.235c0,1.614,0,3.228-.005,4.842,0,.211.074.264.273.262.927-.008,1.854,0,2.78,0H876V842H864.813a.75.75,0,0,0-.142-.054,5.417,5.417,0,0,1-4.109-3.056,11.593,11.593,0,0,1-.562-1.7V814.813a.763.763,0,0,0,.055-.142,5.429,5.429,0,0,1,3.083-4.124,11.4,11.4,0,0,1,1.675-.547h22.375a.761.761,0,0,0,.142.054,5.418,5.418,0,0,1,4.109,3.056A11.565,11.565,0,0,1,892,814.813Z" transform="translate(-860 -810)" fill="#f7f7f7"/>
</svg>
