<svg id="Layer_1" data-name="Layer 1" xmlns="http://www.w3.org/2000/svg" viewBox="0 0 2000 2000"><defs><style>.cls-1{fill:#f2792d;}.cls-2{fill:#2064fa;}</style></defs><title>finals</title><path class="cls-1" d="M456.55,1858c-2.66-7.21-9.17-16.13-6.93-21.15,2.35-5.27,13.06-9.45,20.16-9.53,60.32-.74,120.65-.43,181-.43h19.72c.34-7.22.84-13.13.85-19,.06-50.27-.05-100.54.08-150.81,0-18.89,4.77-23.5,23.88-23.53q93.83-.12,187.67,0h19.17c.33-5.72.8-10,.8-14.3,0-69.82-.21-139.64.27-209.46.08-11.41-2.72-16-14.72-18.84Q563.77,1312.68,465.76,993c-1.64-5.41-6.66-12.34-11.55-13.82-55.93-17-97.34-54.05-133.22-97.54C248.68,794,207.29,694.94,209.93,579c1.92-83.74.34-167.55.4-251.34,0-24,3.25-27.26,26.95-27.28q94.67-.09,189.35,0h20.24V219.16c0-17.88-1-35.83.45-53.59.64-8,6-15.72,9.23-23.57H1542.46c3.19,8.43,9,16.81,9.15,25.3.94,43.47.44,87,.44,133.09h18.65c64.78,0,129.56.14,194.34-.1,14.55-.06,23.68,4.22,23.59,20.72-.53,103.3,5.32,207.09-2.76,309.79-10.67,135.51-78,243.5-188.35,323.41-13.71,9.93-30.47,16.24-46.6,22-10.53,3.78-15.72,8.79-19,19.75q-88.41,291.7-379.09,384.37c-15.37,4.88-31.5,7.38-46.92,12.14-4,1.22-9.4,6.8-9.42,10.39-.31,75.93,0,151.86.33,227.79,0,.37.76.73,3,2.8h198.65c26.29,0,29.13,2.77,29.15,28.43q0,72,0,144.08v20.89h18.75c60.87,0,121.75-.3,182.61.42,7.11.09,17.8,4.21,20.18,9.47,2.27,5-4.12,14-6.7,21.22ZM1518.85,325.26H478.64v17.49c0,167-.48,334,.4,501,.19,34.45,2.43,69.46,8.92,103.21,55.91,290.35,336.43,474.43,625.31,411.4,228-49.75,400.52-253.35,405.62-486.17,3.91-178.65,1.17-357.44,1.32-536.16C1520.21,332.77,1519.41,329.51,1518.85,325.26Zm.48-151.17H479.77V298.25H1519.33Zm-1276.84,159c0,100.76-.64,199.52.52,298.25.25,20.85,5.45,42.11,11.25,62.36C281,787.2,332.12,864.58,409.58,924c13.78,10.57,27.64,21,42.5,32.33-11.13-209.6-1.6-416.48-6.16-623.22Zm1307,620.78a22.24,22.24,0,0,0,3.37-1.93c16-12.2,32.56-23.67,47.7-36.81,97.81-84.86,156.24-189.14,156.59-321.5.21-80.93,0-161.86,0-242.79V333.68h-207.7Zm-845.4,872h590.74V1665.69H704.09Zm358.37-193.2V1400.93H935.83v231.74Z"/><path class="cls-2" d="M822.77,976.75c9.39-54.91,18-108.31,27.94-161.46,2.93-15.69.52-26.44-11.88-37.89-37.71-34.83-74-71.2-110.53-107.3-4.32-4.28-6.6-10.63-9.83-16,5.46-2.06,10.77-5.18,16.41-6,54.59-8.18,109.3-15.63,163.8-24.37,6.17-1,13.52-7.47,16.52-13.34,24.83-48.65,48.65-97.8,73.13-146.63,2.52-5,7.31-8.92,11-13.34,3.79,4.34,8.71,8.11,11.21,13.1,24.47,48.82,48.15,98,73.17,146.59,3.33,6.45,12.37,12.77,19.6,13.93,54.49,8.8,109.21,16.2,163.8,24.34,4.59.69,8.85,3.62,13.26,5.51-2.35,4.63-3.69,10.28-7.2,13.75-38.15,37.63-76.24,75.33-115.28,112-10.23,9.62-13,18.65-10.5,32.08,9.7,52.63,18.54,105.42,27.31,158.22.82,4.89-1.1,10.23-1.76,15.36-5.14-1.14-10.82-1.24-15.34-3.59-48.49-25.16-96.94-50.4-145-76.32-9.4-5.08-16.32-5.42-26-.2-48.52,26.29-97.5,51.73-146.41,77.29C827,989.42,822.11,987.13,822.77,976.75Zm37.37-38.88c44.4-23.3,85-44.08,125.06-66,10.65-5.82,18.64-5.46,29.06.27,35.15,19.33,70.88,37.61,106.41,56.25,5,2.63,10.17,5,18.18,8.93-8.33-48.77-15.5-93.84-24-138.65-2.28-12,.44-19.6,9.15-27.71,24.49-22.81,48.17-46.5,72.12-69.9,9-8.79,17.87-17.72,28.65-28.43-49.38-7.3-95.5-14.53-141.77-20.61-10.26-1.34-15.57-5.3-19.9-14.32-18.57-38.67-37.78-77-56.87-115.46-1.8-3.63-4.33-6.9-7.57-12-21.73,44-42,86.15-63.53,127.66C932,644,923.7,650,917,651.16c-46.45,7.74-93.13,14.19-136.29,20.54C807,699.9,832.18,730.62,861.35,757c20.39,18.41,26,35.63,19.55,62.15C871.74,856.82,867.26,895.68,860.14,937.87Z"/></svg>