<svg xmlns="http://www.w3.org/2000/svg" width="32" height="32" viewBox="0 0 32 32">
  <g id="Group_30" data-name="Group 30" transform="translate(0)">
    <path id="Path_1" data-name="Path 1" d="M316,289.14V274.86c.019-.2.037-.4.058-.594a8.9,8.9,0,0,1,.8-2.861,9.269,9.269,0,0,1,4.36-4.462,8.837,8.837,0,0,1,3.05-.885c.2-.022.41-.039.615-.059h14.24c.043.006.085.015.128.017a8.762,8.762,0,0,1,2.282.421,9.244,9.244,0,0,1,5.207,4.186,8.948,8.948,0,0,1,1.206,3.651c.021.195.038.39.057.585v14.28a1,1,0,0,0-.017.107,8.954,8.954,0,0,1-.7,3.021,9.253,9.253,0,0,1-4.078,4.562,9.017,9.017,0,0,1-3.485,1.112c-.2.022-.4.039-.605.058H324.88c-.132-.012-.264-.026-.4-.037a8.949,8.949,0,0,1-3.027-.794,9.266,9.266,0,0,1-4.322-4.02,8.991,8.991,0,0,1-1.077-3.415C316.037,289.536,316.019,289.338,316,289.14Zm2.461-7.151q0,3.34,0,6.68a7.106,7.106,0,0,0,.157,1.508,6.783,6.783,0,0,0,6.6,5.358c4.483.015,8.966.006,13.449,0a7.6,7.6,0,0,0,1.183-.1,6.5,6.5,0,0,0,3.342-1.575,6.678,6.678,0,0,0,2.339-5.189q.014-6.674,0-13.349a7.206,7.206,0,0,0-.044-.818,6.8,6.8,0,0,0-6.7-6.038c-4.476-.025-8.953-.008-13.429-.009a6.8,6.8,0,0,0-1.5.148,6.714,6.714,0,0,0-4.513,3.3,6.838,6.838,0,0,0-.892,3.53C318.467,277.623,318.461,279.806,318.461,281.989Z" transform="translate(-316 -266)" fill="#f7f7f7"/>
    <path id="Path_6" data-name="Path 6" d="M685.16,643.871a8.691,8.691,0,1,1,8.667,8.692A8.711,8.711,0,0,1,685.16,643.871Zm2.483,0a6.208,6.208,0,1,0,6.209-6.212A6.2,6.2,0,0,0,687.643,643.876Z" transform="translate(-677.851 -627.873)" fill="#f7f7f7"/>
    <path id="Path_7" data-name="Path 7" d="M1487,512.128a1.828,1.828,0,1,1-1.832,1.82A1.831,1.831,0,0,1,1487,512.128Z" transform="translate(-1461.752 -507.199)" fill="#f7f7f7"/>
  </g>
</svg>
