<svg id="Layer_1" data-name="Layer 1" xmlns="http://www.w3.org/2000/svg" viewBox="0 0 2048 1580"><defs><style>.cls-1{fill:#db3143;}.cls-2{fill:#fefefe;}.cls-3{fill:#c4e4fe;}.cls-4{fill:#a9d3f9;}.cls-5{fill:#fd9a93;}.cls-6{fill:#ebebed;}.cls-7{fill:#fdaeaa;}.cls-8{fill:#389583;}.cls-9{fill:#febdab;}.cls-10{fill:#140c48;}.cls-11{fill:#f25563;}.cls-12{fill:#fdcd32;}.cls-13,.cls-21{fill:none;}.cls-14{fill:#f35563;}.cls-15{fill:#ffafab;}.cls-16{fill:#ff9497;}.cls-17{fill:#140b48;}.cls-18{fill:#ffa600;}.cls-19{fill:#050022;}.cls-20{fill:#231d63;opacity:0.4;}.cls-21{stroke:#f27982;stroke-miterlimit:10;stroke-width:1.58px;}.cls-22{fill:#fff;opacity:0.5;}</style></defs><title>landing-01</title><path class="cls-1" d="M756.75,1576.06c-485-22.73-904-792.92-688.5-1109.75,132.85-195.28,513.64-228.38,916-113A103.14,103.14,0,0,0,1058,346.9c612.7-299.57,804.58-301.22,856.73-234.39,71.55,91.68-131.34,297.65-44.23,574.93C1921.92,851.26,2022.32,873.56,2036.3,986c15.31,123.13-78.3,312.41-589.69,593.31l-272.72-162.11C985.57,1569.46,830.43,1579.51,756.75,1576.06Z"/><polygon class="cls-2" points="1053.85 967.61 1026.93 928.13 1020.32 872.08 998.34 785.65 957.29 708.39 918.55 689.13 911.86 680.35 939.96 671.16 1001.97 666.08 1013.59 675.89 1027.72 706.92 1070.12 870.11 1070.12 920.18 1086.34 893.28 1108.57 908.23 1047.93 1118.13 1026.93 1125.21 1053.85 967.61"/><polygon class="cls-2" points="1307.45 691.92 1302.77 675.58 1207.91 663.07 1176.28 726.81 1140.48 897.44 1223.96 908.23 1247.61 874.48 1247.61 854.21 1234.98 844.4 1239.97 837.13 1250.54 841.26 1262.37 839.63 1263.06 828.1 1297.69 747.43 1311.95 693.66 1307.45 691.92"/><polygon class="cls-2" points="1316.89 1112.37 1319.92 1015.5 1335.77 974 1303.04 939.04 1248.36 923.52 1114.82 896.07 1069.61 898.96 1033.32 1083.19 1011.16 1153.8 1080.53 1158.57 1244.51 1134.64 1316.89 1112.37"/><polygon class="cls-3" points="756.75 1576.06 1446.61 1579.29 1365.76 1253.6 1436.97 1196.22 1486.72 1097.59 1405.91 749.24 1324.71 683.72 1247.61 663.07 1215.75 896.06 1085.61 1010.02 1042.76 923.39 987.82 774.9 947.75 658.84 792.11 713.67 805.34 854.21 724.55 1148.89 785.93 1278.69 903.32 1208.08 797.99 1311.24 788.66 1371.63 866.61 1372.76 785.93 1492.57 756.75 1576.06"/><path class="cls-4" d="M1302.77,675.58c5.63,1.88,11.27,3.74,16.89,5.67,1.44.49,2.86,1.57,3.91-.52,1.25.66,1,1.88,1.14,3-3.33,0-4.11,2.35-5,5-12.3,34.48-22.34,69.66-32.65,104.75-4.63,15.76-8.7,31.69-12.71,47.62-1,3.8-3.39,3.28-5.93,3.41-8.6.44-17-3.06-26.2-1,3,6.85,10.65,8,15.23,12.88s6.42,8.64,3.64,15c-2.49,5.69-3.65,11.94-5.59,17.88-1.54,4.71-.63,7.31,4.67,8.8,25.65,7.17,51.2,14.73,76.8,22.09,8.25,2.37,16.53,4.65,24.85,6.78,4.22,1.09,6.29,3.33,5.51,7.82-1.88,10.89-1.63,21.88-1.53,32.86-4.94,7.69-9.55,15.62-14.91,23-5.49,7.55-9.28,16.35-16.53,22.62,5.79-24.4,11.47-48.83,17.46-73.17,1.1-4.47,1-7.11-4.31-7.47-1.79-.12-3.53-1-5.31-1.39-34.75-8.66-69.94-15.49-104.45-25.14,1.68-11,5.23-22.09.33-33.21a9.4,9.4,0,0,0,3.17-7.57c7.81-7.26,7.77-7.6-.33-14.2-4.39-3.57-8.62-7.33-12.92-11l3.37-4,17.09,2.12c4.1.51,6.17-.45,7.57-5.25,6-20.5,12.21-40.9,17.94-61.48,8-28.88,17.12-57.46,25.76-86.17C1302.46,682.6,1302.79,679.14,1302.77,675.58Z"/><path class="cls-3" d="M1446.61,1579.28c-1.57.11-3.13.32-4.69.32H1122.24c-1.83,0-3.66-.18-5.5-.28-.51-10.49-1-21-1.53-31.45q-3.63-80.62-7.26-161.24c-1.09-23.55-2.45-47.1-3.69-70.65a63.91,63.91,0,0,1,7.73.87q27,6.27,54,12.76,40.66,9.78,81.3,19.67c2.58.63,5.66,3,6.67-1.89,2.34-.26,3.68-1,1.32-3.17l.24-3.13c2.37-.27,3.7-1,1.32-3.21.08-1,.17-2.06.25-3.09,2.37-.28,3.71-1,1.32-3.22.08-1,.17-2.06.25-3.08,3.57-.67,3.83-2.31,1.38-4.73l.21-3.16c2.31-.26,3.72-.9,1.36-3.16.07-1.59.14-3.18.22-4.76l1.42-1.6q.85-5.5,1.73-11l1.41-1.63c3.15-6.72,2.53-14.35,5.13-21.21,1.42-3.72-1-3.89-3.61-3.89-7.34,0-14.67,0-22,0a303.85,303.85,0,0,0-42.77-1.34l-15.55-.15-104.18-5.09c.3-2.34,1.7-3.5,3.86-4.43,8-3.39,15.75-7.11,23.67-10.56,65.41-28.52,133.11-50.34,202.08-68.26,44.06-11.44,87.17-25,124.69-51.83,18.94-13.56,37-28.17,46.3-50.65,7.52,44.74,14.15,89.57,11.1,135.17-2.18,32.62-10.1,41.59-42,47.69-7.45,1.42-15,2.2-22.53,3.28-9.32,1-18.63,2.25-28,3-4,.31-5.45,1.33-4.81,5.71,4.42,30.44,10,60.69,14.14,91.2,4.5,33.57,12.37,66.65,15.61,100.45.27,2.8.92-.65,1.6-.65.36,1.76.73,3.52,1.09,5.27q6,39.11,11.95,78.19Q1444.34,1564.8,1446.61,1579.28Zm-107.59-157c.32-17.64-2.94-34.8-6-52-1.06-6-2.93-7-8.32-7.06-24.26-.15-48.48,1-72.71,1.62-13.14.33-26.28.19-39.42,0-4.59-.06-7.16,1.06-8.06,6.22-1.15,6.69-2.07,13.39-3.11,20.08-4,25.63-3.74,51,3.49,76,3.77,13.06,10,24.53,20.64,33.47,16.11,13.54,35.16,16,54.84,13.81,20.76-2.34,36.53-12.92,46.44-32S1338.66,1443,1339,1422.24Z"/><path class="cls-4" d="M1484,1081c-9.3,22.48-27.36,37.09-46.3,50.65-37.52,26.88-80.63,40.39-124.69,51.83-69,17.92-136.67,39.74-202.08,68.26-7.92,3.45-15.72,7.17-23.67,10.56-2.16.93-3.56,2.09-3.86,4.43l-31.49-1.54c3-7.48.9-15.61,2.92-23.22,48.48-16.35,96.67-33.53,144.3-52.23,25.23-9.91,50.9-18.83,75.12-31.19,13.56-4.31,25.83-11.53,38.8-17.14,37.93-16.4,61.84-45.9,78-82.66,2-4.66,4.68-6.45,9.54-5.88,11.7,1.39,23.41,2.66,35.13,3.89,10.79,1.13,21.55,4.78,32.42.51,2.61-1.73,1.66-3.62-.08-5.08a27.36,27.36,0,0,0-8-4.73c-15.18-5.73-31-8.8-46.76-12.45-3.2-.75-8.28,1.21-9.53-4.33,6.94,1.72,14,1.19,21.08,1.26a190,190,0,0,1,52.43,7.83Q1480.61,1060.4,1484,1081Z"/><path class="cls-5" d="M1403.74,1030.7l-3.07-.45c13.55-.8,27-1.76,40.65-.58,15.52,1.35,31.22,3.19,46-4.13,3.34,2.85,3.19,6.19,1.35,9.75-2.5,4.84-7,4.63-11.44,4.5a190,190,0,0,0-52.43-7.83C1417.78,1031.89,1410.68,1032.42,1403.74,1030.7Z"/><path class="cls-2" d="M1296.35,1070c-3.1,7.55-7.8,14.19-12.51,20.71-3.79,5.26-10.9,2.31-16,4.9l-12.57.12a40.52,40.52,0,0,0-4.42-1.63c-52.32-12.65-104.62-25.4-157-37.72-6-1.41-12-4.41-18.66-2.38a30.9,30.9,0,0,0,8.45,3.25q79.29,19,158.59,37.9c2,.46,3.64.69,3.54,3.18-.42.06-.85.11-1.28.14-12.5,1.76-25,3.29-37.5,5.4a96.33,96.33,0,0,1-11.58.88,13.77,13.77,0,0,0-2.18-.91q-59.55-14.31-119.12-28.55c-1.36-.32-3.08-1.07-4.52,2.07l117.93,28.93c-12.49,2.1-25,4.32-37.46,6.22-4.87.74-9.68,2.37-14.72,1.66-19.26-4.69-38.49-9.52-57.79-14-4.4-1-8.82-3.38-14.22-2.26,2.26,3.3,5,3.14,7.49,3.75,18,4.48,36.22,8,53.87,13.83-7,3.43-14.66,2.7-22,4-9,1.62-18,2.74-27,4.07-4.18-2.84-9.34-2.5-13.85-4.28a2.2,2.2,0,0,0-3.16,1.29c-.51,1.54.35,2.47,1.75,2.84s3.14.25,4.12,1.78l-31.46,4.74c.74-4.63,1.17-9.33,2.25-13.88q18.51-77.7,37.18-155.37c3.71-15.49,7.38-31,11.22-46.45.91-3.63,1.14-7.23,7.55-5.57,22,5.68,44.19,10.24,66.26,15.51,20,4.79,40,10,60,14.89,32.46,7.88,64.92,15.74,97.46,23.27,5.2,1.2,5.44,3.61,4.45,7.77-5.08,21.32-10.27,42.61-15,64C1301.81,1046.07,1297.48,1057.66,1296.35,1070Zm-6.08-81.65.45-2.74c-62.08-16.24-124.76-29.83-187-45.15l-.72,3.07Zm-4.41,20.31c-62.87-15.29-125.57-30.93-188.67-44.87C1159.48,981.4,1222.44,996.21,1285.86,1008.62Zm-6.46,24,.43-2.8c-62.78-15.39-125.64-30.45-188.75-44.41-.2.88-.41,1.75-.62,2.63Zm-9.72,45.52.66-3.13-189.09-45.43-.72,3ZM1086.4,1007c-.27,1-.53,2-.8,3l189.11,45.44c.25-1,.49-2,.73-3Z"/><path class="cls-6" d="M1296.35,1070c1.13-12.3,5.46-23.89,8.1-35.86,4.74-21.4,9.93-42.69,15-64,1-4.16.75-6.57-4.45-7.77-32.54-7.53-65-15.39-97.46-23.27-20-4.86-40-10.1-60-14.89-22.07-5.27-44.31-9.83-66.26-15.51-6.41-1.66-6.64,1.94-7.55,5.57-3.84,15.46-7.51,31-11.22,46.45q-18.62,77.69-37.18,155.37c-1.08,4.55-1.51,9.25-2.25,13.88l-26.95,4.72c6.14-26,12.5-51.86,18.31-77.89,2.55-11.39,7.45-22.39,6.48-34.45l.21.14a1.68,1.68,0,0,0,1.44-2.05c7-12.82,6.42-27.2,8-41,1.53-13.35,1.53-26.87,2.2-40.31a11.37,11.37,0,0,0,0-15.66c0-1.07,0-2.14,0-3.21.72-.29,2-.46,2.08-.89,3-13.43,10.57-24.9,15.83-37.36,2.19-5.19,5-10.58,3.69-16.63-3.17-15-5.9-30.21-9.8-45.07-9.34-35.58-17.34-71.55-29.7-106.26-4-11.27-8.13-23-18.39-30.49a21,21,0,0,1-6.24-7.58c1.6-11.66,5-22.88,8.32-34.12.81-2.73,2.18-4.5,5.06-5.28,5.51-1.5,10.95-3.27,16.42-4.93,1.06,6.19,2,12.39,3.18,18.56q8.57,46.71,17.2,93.41,10.47,59.61,20.88,119.21c.67,3.82,3.4,4.23,6.17,4.91,18.59,4.53,37.24,8.79,55.74,13.67,4.89,1.29,5.83-.35,6.44-4.41,1.37-9.07,3-18.1,4.55-27.15q6.67-39.9,13.33-79.8l9-51.27c1.26-7,2.59-13.89,3.76-20.86q4.71-28.15,9.32-56.32a428.53,428.53,0,0,1,9.37,62.75c-.46,1.17-1.41,2.38-1.32,3.51,1,13-2.67,25.18-6,37.59-4.1,15.53-9,31-9.79,47.24v-.06a2.63,2.63,0,0,0-1.48,3.07c-7.86,10.42-6.75,22.47-6.32,34.41-3,15.53-6,31.07-9.12,46.59-.65,3.26.41,5.08,3.6,5.62,6.65,1.14,13.5,1.57,19.91,3.47s7.37-1.49,9.41-6.3c7.81-18.5,17.26-29.23,35.79-23.33,6.09,1.93,14.59.73,17.51,9.2a9.4,9.4,0,0,1-3.17,7.57c-7-8.68-15.55-14.1-27.27-11.27s-16.93,11.38-19.57,22.25c-1.48,6.1-3.56,12.09-4.6,18.27-.9,5.31-3.18,6.13-8,4.85-12.65-3.34-25.49-6-38.1-9.51-4.27-1.18-5.27.22-6.51,3.78-2.15,6.22-.16,8.55,6.14,9.94,23.51,5.18,46.92,10.83,70.33,16.47,21.64,5.21,43.27,10.49,64.82,16.06,5.13,1.33,5.87-1.51,6.5-5,.55-3.07,2.86-6.62-2.84-7.86-10.23-2.22-20.27-5.48-30.56-7.29-18-3.17-14.57-2.9-10.66-17.46,34.51,9.65,69.7,16.48,104.45,25.14,1.78.44,3.52,1.27,5.31,1.39,5.35.36,5.41,3,4.31,7.47-6,24.34-11.67,48.77-17.46,73.17-4.85,11.63-13,21.17-19.91,31.53C1308.71,1053.38,1304.07,1062.79,1296.35,1070Z"/><path class="cls-7" d="M772.87,1085.72c5.16-4.5,11.78-4.16,17.78-4.39,23.73-.92,47.36,1,70.89,4.11a46.19,46.19,0,0,0,5.37,0c-3.92-3.54-8.62-2.72-12.12-4.86-.49-3.62-3.89-3.28-6.07-4a356,356,0,0,1-60.62-25.85c-6-3.2-12-6.5-15.4-12.9,13.14-2.77,26,.4,38.86,2.16a542.76,542.76,0,0,1,73.54,15.8c19.19,5.42,32,16.79,39.44,35.05,4.34,10.67,9.05,21.18,10.76,32.7-18.28,14.62-40.11,20.47-62.38,25.23-15.07,3.22-30.51,2.65-45.73,4.49-6.22.76-13.33,1.46-18.11-4.8,8.4-6.58,18.81-7,28.61-8.9,8.89-1.75,18-2.38,27-3.5,1.14-2,.21-3-1.79-3-15.79,0-31.09-3.64-46.44-6.54-10.06-1.89-20.76-2.08-29.6-8.46,5-9.54,15-7.77,23.21-10.06,2.66-.75,5.71-.16,8.58-.19,10.41,3.58,17.56,2.13,20.69-4.5C816.29,1100.65,794.76,1092.52,772.87,1085.72Z"/><path class="cls-6" d="M1260.24,1320.6l-.21,3.16c-1.75,1.2-1.4,3-1.38,4.73-.08,1-.17,2-.25,3.08a3.36,3.36,0,0,0-1.32,3.22c-.08,1-.17,2.06-.25,3.09a3.32,3.32,0,0,0-1.32,3.21l-.24,3.13a3.19,3.19,0,0,0-1.32,3.17c-1,4.93-4.09,2.52-6.67,1.89q-40.65-9.84-81.3-19.67-27-6.48-54-12.76a63.91,63.91,0,0,0-7.73-.87c-2-2.13-4.5-2.38-7.17-2.2a50.76,50.76,0,0,0-5.9-2.14q-52.89-12.73-105.8-25.37c-14.52-3.49-14.51-3.54-12.4-17.62,7.64-2.85,15.23-5.9,23.52-6.38l42.94,2c.26,1.86,1.43,2.39,3.18,2.8q49.57,11.58,99.09,23.35,45,10.69,89.91,21.54c2.57.62,5.37,1.9,6.25-2,2.74-12.2,5.35-24.42,8-36.63,7.34,0,14.67,0,22,0,2.57,0,5,.17,3.61,3.89-2.6,6.86-2,14.49-5.13,21.21l-1.41,1.63-1.74,11-1.41,1.6c-.08,1.58-.15,3.17-.22,4.76A3.13,3.13,0,0,0,1260.24,1320.6Z"/><path class="cls-4" d="M973,1268.65c-2.11,14.08-2.12,14.13,12.4,17.62q52.89,12.7,105.8,25.37a52.61,52.61,0,0,1,5.9,2.13l-1.35,13.27c-3.19,0-2.77,5.36-8,4-20.42-5.43-41.17-9.62-61.71-14.6-34-8.25-68.33-8.61-102.75-3.4-25.76,3.9-51.5,8-77.15,12.64-17.17,3.08-34.16,7.19-51.24,10.83-.46-8.59,2.29-16.8,3.08-25.24,24.33-1.29,47.65-7.91,71.19-13.41C904.22,1289.65,938.63,1279.23,973,1268.65Z"/><path class="cls-5" d="M1244.51,1098.43c.43,0,.86-.08,1.28-.14l9.52-2.6,12.57-.12c4.47,14.57,13.94,25.54,25.84,34.4,5.08,3.79,10.71,1.27,15.45-1.8,13.74-8.89,25.12-20.46,35.89-32.64,13.82-15.65,27-31.84,39.74-48.39a13.36,13.36,0,0,1,11.18-5c24.65,2.05,49.25,4.76,72.17,15.17-10.87,4.27-21.63.62-32.42-.51-11.72-1.23-23.43-2.5-35.13-3.89-4.86-.57-7.49,1.22-9.54,5.88-16.18,36.76-40.09,66.26-78,82.66-13,5.61-25.24,12.83-38.8,17.14Z"/><path class="cls-4" d="M949.48,836.62a23.91,23.91,0,0,1,10.81-6.31c.93,5.22,2.59,7.74,9.25,6.68,7.87-1.24,15.93-3.09,24.09-1.92h0c-5.19,6.36-11.93,11-18.59,15.44-5.63,3.77-5.57,6.92-2.07,12.09,11,16.26,21.43,32.89,32.41,49.16,9.5,14.08,19.44,27.85,29.18,41.76a392,392,0,0,1-4.62,54.32c-1.15,7.43-6,11.95-14.15,11.88,1.47-14.62,6.86-28.35,9.79-42.65a12.47,12.47,0,0,0-1.81-10.19c-21.3-33.86-42.44-67.82-63.8-101.64-3.17-5-3-8.35,2.41-11.52,4.2-2.45,7.88-5.79,12.85-9.54-5.68-1-9.57,1.34-13.64,2C951,847.8,951,847.92,949,836.86h0l.89.76Z"/><path class="cls-4" d="M1030.92,1022.3c1,12.06-3.93,23.06-6.48,34.45-5.81,26-12.17,51.94-18.31,77.89-15.69,2.34-31.37,4.72-47.07,7-6.17.9-12.37,1.62-18.55,2.43-.75-4.19-1.48-8.38-2.22-12.58,15.19-2,30.38-4.1,45.59-5.94,4.32-.52,6-2.41,7-6.73,6.46-27.39,13.31-54.69,20.12-82,.82-3.28,2.13-6.43,3.22-9.64C1020.38,1027.58,1025.67,1025,1030.92,1022.3Z"/><path class="cls-4" d="M957.29,822.58l-8.82,4.82c-2.48-.27-3.15-1.78-3.8-4.13q-19-68.78-38.31-137.48c-1.09-3.91-2-7.86-3-11.79a18.25,18.25,0,0,1,8.53-2.92l6,12.61a32.62,32.62,0,0,0,.67,5.44q13.4,46,26.9,92C949.47,794.91,953.35,808.75,957.29,822.58Z"/><path class="cls-5" d="M938.29,1131.51c.74,4.2,1.47,8.39,2.22,12.58-10.17,4.53-21.23,5.05-32,6.91-28.07,4.86-56.16,9.77-84.85,8.91-4.75-.15-9.53-.21-13.77-2.51s-5.83-5.41-.85-8.88c4.78,6.26,11.89,5.56,18.11,4.8,15.22-1.84,30.66-1.27,45.73-4.49,22.27-4.76,44.1-10.61,62.38-25.23Q936.79,1127.55,938.29,1131.51Z"/><path class="cls-8" d="M1030.92,1022.3c-5.25,2.72-10.54,5.28-16.7,4.91l-3.14,0c0-2.49,0-5,.08-7.48l4.63,0c8.11.07,13-4.45,14.15-11.88a392,392,0,0,0,4.62-54.33c1.81-5.67-1.2-11.84,1.82-17.39l5.89-1.56c.17,1.49.33,3,.5,4.49-.67,13.44-.67,27-2.2,40.31-1.58,13.83-1,28.21-8,41l-1.44,2.05Z"/><path class="cls-8" d="M918.68,928.13c.93,3.54.17,8.47,6.34,7.68.79,17.68,1.55,35.35,2.4,53,.19,4.15.79,8.27,1,12.42.71,12.53,6.68,18.28,19.3,18.44,0,2.45.09,4.9.13,7.35-17-.77-25.23-8.63-26.42-25.54C919.75,977.08,918,952.65,918.68,928.13Z"/><path class="cls-7" d="M1039.45,1264.31l-42.94-2c2-3.45,5.92-3.08,9-4.12,16.39-5.5,32.85-10.79,49.28-16.16-2,7.61.06,15.74-2.92,23.22Z"/><path class="cls-9" d="M1187.54,1106.25l-117.93-28.93c1.44-3.14,3.16-2.39,4.52-2.07q59.58,14.22,119.12,28.55a13.77,13.77,0,0,1,2.18.91C1193.16,1107,1190.18,1105.8,1187.54,1106.25Z"/><path class="cls-5" d="M772.87,1085.72c21.89,6.8,43.42,14.93,66.48,17.66-3.13,6.63-10.28,8.08-20.69,4.5l14.44-2c-14.85-2.15-29.54-4.31-44.05-7.69-4.87-1.13-9.67-2.55-13.88-5.25C772.69,1091.4,769.32,1089.48,772.87,1085.72Z"/><path class="cls-5" d="M786.87,1118.13c8.84,6.38,19.54,6.57,29.6,8.46,15.35,2.9,30.65,6.56,46.44,6.54,2,0,2.93,1,1.79,3-4.14-2.41-8.7-1.32-13.05-1.31-19.15,0-38.21-.88-56.91-5.3C786.12,1127.48,784.61,1124.87,786.87,1118.13Z"/><path class="cls-5" d="M772.7,1037.89c3.38,6.4,9.4,9.7,15.4,12.9a356,356,0,0,0,60.62,25.85c2.18.69,5.58.35,6.07,4-25.07-7.4-49.84-15.57-73.19-27.55a36.79,36.79,0,0,1-10.73-7.76C767.76,1041.89,767.91,1039.33,772.7,1037.89Z"/><path class="cls-10" d="M947.88,1027c0-2.45-.09-4.9-.13-7.35,2.76-4.25,6.24-7.24,11.71-5.72a9.21,9.21,0,0,1,7.2,9.21,9,9,0,0,1-6.26,9.09C954.71,1034.38,950.84,1031.68,947.88,1027Z"/><path class="cls-10" d="M1011.16,1019.68c0,2.49-.06,5-.08,7.48-5.57,6.49-10.41,7.67-15.17,3.52-3-2.59-4.33-5.89-3.2-9.82a9.35,9.35,0,0,1,7.6-7.08C1005.38,1012.86,1008.73,1015.52,1011.16,1019.68Z"/><path class="cls-9" d="M1124.71,1115.46c-17.65-5.8-35.88-9.35-53.87-13.83-2.46-.61-5.23-.45-7.49-3.75,5.4-1.12,9.82,1.25,14.22,2.26,19.3,4.47,38.53,9.3,57.79,14C1132.08,1116.76,1128.27,1115.16,1124.71,1115.46Z"/><path class="cls-6" d="M1064.54,1125.18c-1-1.53-2.64-1.39-4.12-1.78s-2.26-1.3-1.75-2.84a2.2,2.2,0,0,1,3.16-1.29c4.51,1.78,9.67,1.44,13.85,4.28C1072.2,1125.74,1068.32,1125.1,1064.54,1125.18Z"/><path class="cls-8" d="M919.37,896.68c.25,9.41.68,18.83-.58,28.21C917.82,915.46,918.45,906.07,919.37,896.68Z"/><path class="cls-3" d="M781,1415.09c4.65-14.12,5-29,7.62-43.46,2.14-11.7,4.17-23.43,6.25-35.15,17.08-3.64,34.07-7.75,51.24-10.83,25.65-4.61,51.39-8.74,77.15-12.64,34.42-5.21,68.71-4.85,102.75,3.4,20.54,5,41.29,9.17,61.71,14.6,5.21,1.39,4.79-3.93,8-4-.9,12-1.73,24-2.72,36q-8.91,108.11-17.88,216.2c-2.35.11-4.71.32-7.07.32q-151.21,0-302.45-.1c-3.09,0-7.79,2.43-8.87-3.44q11.87-75.39,23.68-150.78A101.52,101.52,0,0,0,781,1415.09Zm117.47-50.25c-7.35,0-14.73.4-22-.12-6.29-.45-9,2-9.86,8s-1.71,12.39-2.65,18.56c-3.54,23.45-3.85,46.75,2,69.84,4.13,16.17,10.08,31.24,24.74,41.42,13,9.06,27.25,12.27,42.92,12.16,31.65-.23,51.53-17.15,60.39-43.36,11.36-33.6,8.37-67.35,1.77-101.29-1.11-5.7-3.15-6.92-8.56-7C957.66,1362.81,928.08,1363.84,898.51,1364.84Z"/><path class="cls-8" d="M1075.14,1579.28q9-108.09,17.88-216.2c1-12,1.82-24,2.72-36l1.35-13.27c2.67-.17,5.21.08,7.17,2.21,1.24,23.55,2.6,47.1,3.69,70.65q3.73,80.63,7.26,161.24c.48,10.48,1,21,1.53,31.45Z"/><path class="cls-5" d="M1179.58,641.52q-4.65,28.15-9.32,56.32c-1.17,7-2.5,13.91-3.76,20.86-2.6.26-2.24,2.35-2.65,4.1-3.33,14.25-6.16,28.63-10.89,42.53-4.57,13.41-20.86,24.7-35.08,25.95-24.6,2.16-41.5-18.19-48.39-34.62-14.3-34.13-17.37-70.3-19-106.65-.85-18.86,2.81-37.47,4.39-56.19.54-6.45,2.23-6.87,7.56-4.42,18.67,8.57,38.32,12.61,58.85,10.62,16.13-1.57,30.3-7.73,41.07-20.41l-3.08-8.34c2.94-.24,2.66,2.66,2.94-.24V569.7c.54-.52,2.78.07,3.33-.46s3.94-2.12,4.43-2.68c.59,16.51,1.3,38.15,1.88,54.66.14,3.83-.5,7.32,4.55,9.59C1179.88,632.38,1179.41,637.61,1179.58,641.52Z"/><path class="cls-11" d="M1170,567.63c-12,24.86-32.61,30.82-48.74,32.39-20.53,2-40.18-2-58.85-10.62-5.33-2.45-7-2-7.56,4.42-1.58,18.72-5.24,37.33-4.39,56.19,1.65,36.35,4.72,72.52,19,106.65,6.89,16.43,23.79,36.78,48.39,34.62,14.22-1.25,30.51-12.54,35.08-25.95,4.73-13.9,7.56-28.28,10.89-42.53.41-1.75.05-3.84,2.65-4.1l-9,51.27c-1,1.16-2.09,2.3-3.12,3.48-6.37,7.32-13.14,14.36-21.42,19.41-16.14,9.82-33.75,6.07-51.53-9.19-13.18-11.33-21.29-26.29-31-40.13q-8.61-46.69-17.2-93.41c-1.13-6.17-2.12-12.37-3.18-18.56,9.52-1.89,11.09-8,10.91-16.92-.29-14.28,1.13-37.95,1.84-52.25,31.42,29.42,73.07,38.39,107.11,19.89C1152.37,580.93,1166.87,567.22,1170,567.63Z"/><path class="cls-11" d="M1168.62,573.37c-.54.53-1.08,1.06-1.63,1.58C1167.54,574.43,1168.08,573.9,1168.62,573.37Z"/><path class="cls-2" d="M1000.21,675.9a21,21,0,0,0,6.24,7.58c10.26,7.53,14.38,19.22,18.39,30.49,12.36,34.71,20.36,70.68,29.7,106.26,3.9,14.86,6.63,30,9.8,45.07,1.28,6.05-1.5,11.44-3.69,16.63-5.26,12.46-12.81,23.93-15.83,37.36-.1.43-1.36.6-2.08.89-.8-17.78-.41-35.66-3.15-53.3a57.52,57.52,0,0,0-47-47.63c-5.5-.94-7.15-2.55-6.87-8.33,2.13-42.68,5.06-85.26,12.72-127.37C998.92,681,999.62,678.45,1000.21,675.9Z"/><path class="cls-2" d="M957.29,822.58c-3.94-13.83-7.82-27.67-11.84-41.48q-13.41-46-26.9-92a32.62,32.62,0,0,1-.67-5.44c18-.72,35.23-6.4,53.26-7.37,6.36-.34,12.88,4,19-.42,1.35,9.3-1.95,18.08-3.21,27.07a1030,1030,0,0,0-9,107.83c-.19,5.29-1.09,8.05-7.06,8.42C966.31,819.5,961.82,821.4,957.29,822.58Z"/><path class="cls-2" d="M1036.38,936.12c-3,5.55,0,11.72-1.82,17.39-9.74-13.9-19.68-27.67-29.18-41.75-11-16.27-21.42-32.9-32.41-49.16-3.5-5.17-3.56-8.32,2.07-12.09,6.66-4.47,13.4-9.08,18.59-15.44l.33-.69-.33.69c-8.16-1.17-16.22.68-24.09,1.92-6.66,1.06-8.32-1.46-9.25-6.68,31.44-15.36,69.49,6,72.86,40.94,1.78,18.5,1.93,37.08,2.23,55.65C1035.42,930,1034.67,933.2,1036.38,936.12Z"/><path class="cls-6" d="M990.17,675.9c-6.15,4.43-12.67.08-19,.42-18,1-35.29,6.65-53.26,7.37l-6-12.61,78.47-26.75c2.92-1,5.86-1.91,9.85-3.22-2.73,10.16-5.25,19.57-7.78,29-.28-.65-.37-1.58-.86-1.89-1.29-.81-1,.64-1,1-.1,1.7,0,3.4,0,5.1Z"/><path class="cls-2" d="M1042.77,939.05c-.17-1.5-.33-3-.5-4.49q.24-5.58.49-11.17A11.37,11.37,0,0,1,1042.77,939.05Z"/><path class="cls-2" d="M990.53,674.35c0-1.7-.08-3.4,0-5.1,0-.4-.31-1.85,1-1,.49.31.58,1.24.86,1.89C992.38,671.78,992.66,673.59,990.53,674.35Z"/><path class="cls-3" d="M949.48,836.62l.43,1-.89-.76Z"/><path class="cls-2" d="M1299.68,685.27c-8.64,28.71-17.74,57.29-25.76,86.17-5.73,20.58-12,41-17.94,61.48-1.4,4.8-3.47,5.76-7.57,5.25l-17.09-2.11c.88-3.29,1.82-6.56,2.63-9.86,4.37-18.05-5.48-36.4-23.11-41.82-5.07-1.55-8-3.71-8.52-8.93-.5-28.08-2.35-56.06-6.72-83.84a15.08,15.08,0,0,1,.16-3.13c3-1.94,2.1,6.29,5.4,2.37,6.25-7.44,14.93-8.79,23.59-10.29C1250.09,676.17,1274.9,680.55,1299.68,685.27Z"/><path class="cls-9" d="M1202.32,775.45c.51,5.22,3.45,7.38,8.52,8.93,17.63,5.42,27.48,23.77,23.11,41.82-.81,3.3-1.75,6.57-2.63,9.86-1.13,1.33-2.25,2.68-3.37,4-18,16.69-34.39,18.49-51.66,6-5.76-4.18-8.28-10.57-12.19-16-.43-11.94-1.54-24,6.32-34.4a3.31,3.31,0,0,0,1.48-3.08v.06c5.39-2,9.14-7.24,14.89-8.25s7.84-4.07,7.57-9.46ZM1216,817.8c0-9.34-7.92-17.27-16.94-17-9.4.25-16.4,7.71-16.39,17.47s6.93,16.84,16.73,16.81C1208.65,835,1216,827.38,1216,817.8Z"/><path class="cls-6" d="M1299.68,685.27c-24.78-4.72-49.59-9.1-74.93-4.71-8.66,1.5-17.34,2.85-23.59,10.29-3.3,3.92-2.35-4.31-5.4-2.37l-8-54.26,115,41.36C1302.79,679.14,1302.46,682.6,1299.68,685.27Z"/><path class="cls-2" d="M1194.35,774.9c.27,5.39-1.87,8.45-7.57,9.46s-9.5,6.23-14.89,8.25c.83-16.24,5.69-31.71,9.79-47.24,3.28-12.41,6.93-24.57,6-37.59-.09-1.13.86-2.34,1.32-3.51C1192.19,727.71,1193.13,751.32,1194.35,774.9Z"/><path class="cls-12" d="M1237.7,906.06c-3.91,14.56-7.33,14.29,10.66,17.46,10.29,1.81,20.33,5.07,30.56,7.29,5.7,1.24,3.39,4.79,2.84,7.86-.63,3.51-1.37,6.35-6.5,5-21.55-5.57-43.18-10.85-64.82-16.06-23.41-5.64-46.82-11.29-70.33-16.47-6.3-1.39-8.29-3.72-6.14-9.94,1.24-3.56,2.24-5,6.51-3.78,12.61,3.49,25.45,6.17,38.1,9.51,4.83,1.28,7.11.46,8-4.85,1-6.18,3.12-12.17,4.6-18.27,2.64-10.87,7.94-19.44,19.57-22.25s20.22,2.59,27.27,11.27C1242.93,884,1239.38,895,1237.7,906.06Zm-10.6-20.6a10.7,10.7,0,0,0-10.76-11,10.5,10.5,0,0,0-10.84,10.8,11,11,0,0,0,10.25,10.78C1221.48,896.29,1227,891.17,1227.1,885.46Z"/><path class="cls-2" d="M1164.1,830c3.91,5.45,6.43,11.84,12.19,16,17.27,12.52,33.7,10.72,51.66-6,4.3,3.67,8.53,7.43,12.92,11,8.1,6.6,8.14,6.94.33,14.2-2.92-8.47-11.42-7.27-17.51-9.2-18.53-5.9-28,4.83-35.79,23.33-2,4.81-2.87,8.24-9.41,6.3s-13.26-2.33-19.91-3.47c-3.19-.54-4.25-2.36-3.6-5.62C1158.09,861.1,1161.07,845.56,1164.1,830Z"/><path class="cls-4" d="M1339,1422.24c-.36,20.77-2.38,41.09-12.21,60.08s-25.68,29.7-46.44,32c-19.68,2.22-38.73-.27-54.84-13.81-10.64-8.94-16.87-20.41-20.64-33.47-7.23-25-7.5-50.37-3.49-76,1-6.69,2-13.39,3.11-20.08.9-5.16,3.47-6.28,8.06-6.22,13.14.16,26.28.3,39.42,0,24.23-.6,48.45-1.77,72.71-1.62,5.39,0,7.26,1.1,8.32,7.06C1336.08,1387.44,1339.34,1404.6,1339,1422.24Z"/><path class="cls-2" d="M1039.45,1264.31l12.45.9,31.49,1.54,104.18,5.09a125.69,125.69,0,0,0,32.26,6.85c-4.77-4.53-11.57-3.43-16.71-6.7a303.85,303.85,0,0,1,42.77,1.34c-2.66,12.21-5.27,24.43-8,36.63-.88,3.94-3.68,2.66-6.25,2q-45-10.8-89.91-21.54-49.52-11.78-99.09-23.35C1040.88,1266.7,1039.71,1266.17,1039.45,1264.31Z"/><path class="cls-9" d="M1203.12,1272c5.14,3.27,11.94,2.17,16.71,6.7a125.69,125.69,0,0,1-32.26-6.85Z"/><path class="cls-4" d="M1258.65,1328.49c0-1.72-.37-3.53,1.38-4.73C1262.48,1326.18,1262.22,1327.82,1258.65,1328.49Z"/><path class="cls-4" d="M1260.24,1320.6a3.13,3.13,0,0,1,1.36-3.16C1264,1319.7,1262.55,1320.34,1260.24,1320.6Z"/><path class="cls-4" d="M1257.08,1334.79a3.36,3.36,0,0,1,1.32-3.22C1260.79,1333.81,1259.45,1334.51,1257.08,1334.79Z"/><path class="cls-4" d="M1255.51,1341.09a3.32,3.32,0,0,1,1.32-3.21C1259.21,1340.11,1257.88,1340.82,1255.51,1341.09Z"/><path class="cls-4" d="M1254,1347.39a3.19,3.19,0,0,1,1.32-3.17C1257.63,1346.44,1256.29,1347.13,1254,1347.39Z"/><path class="cls-4" d="M1261.82,1312.68l1.41-1.6Z"/><path class="cls-4" d="M1265,1300.06l1.41-1.63Z"/><path class="cls-5" d="M1398.94,977.05l-3.19,2.09C1396.11,977.38,1397.41,977,1398.94,977.05Z"/><path class="cls-9" d="M1290.27,988.31,1103,943.49l.72-3.07c62.29,15.32,125,28.91,187,45.15Z"/><path class="cls-9" d="M1285.86,1008.62c-63.42-12.41-126.38-27.22-188.67-44.87C1160.29,977.69,1223,993.33,1285.86,1008.62Z"/><path class="cls-9" d="M1279.4,1032.59,1090.46,988c.21-.88.42-1.75.62-2.63,63.11,14,126,29,188.75,44.41Z"/><path class="cls-9" d="M1269.68,1078.11l-189.15-45.59.72-3L1270.34,1075Z"/><path class="cls-9" d="M1086.4,1007l189,45.44c-.24,1-.48,2-.73,3L1085.6,1010C1085.87,1009,1086.13,1008,1086.4,1007Z"/><path class="cls-9" d="M1255.31,1095.69l-9.52,2.6c.1-2.49-1.59-2.72-3.54-3.18q-79.3-18.87-158.59-37.9a30.9,30.9,0,0,1-8.45-3.25c6.67-2,12.69,1,18.66,2.38,52.4,12.32,104.7,25.07,157,37.72A40.52,40.52,0,0,1,1255.31,1095.69Z"/><path class="cls-8" d="M1050.39,743.54c9.75,13.84,17.86,28.8,31,40.13,17.78,15.26,35.39,19,51.53,9.19,8.28-5.05,15-12.09,21.42-19.41,1-1.18,2.08-2.32,3.12-3.48q-6.66,39.9-13.33,79.8c-1.52,9.05-3.18,18.08-4.55,27.15-.61,4.06-1.55,5.7-6.44,4.41-18.5-4.88-37.15-9.14-55.74-13.67-2.77-.68-5.5-1.09-6.17-4.91Q1061,803.13,1050.39,743.54Z"/><path class="cls-2" d="M1171.9,792.55a3.31,3.31,0,0,1-1.48,3.08C1170.27,794.29,1170.54,793.16,1171.9,792.55Z"/><path class="cls-4" d="M1031.13,1022.44l1.44-2.05A1.68,1.68,0,0,1,1031.13,1022.44Z"/><path class="cls-4" d="M898.51,1364.84c29.57-1,59.15-2,88.75-1.73,5.41.06,7.45,1.28,8.56,7,6.6,33.94,9.59,67.69-1.77,101.29-8.86,26.21-28.74,43.13-60.39,43.36-15.67.11-29.87-3.1-42.92-12.16-14.66-10.18-20.61-25.25-24.74-41.42-5.89-23.09-5.58-46.39-2-69.84.94-6.17,1.78-12.37,2.65-18.56s3.57-8.49,9.86-8C883.78,1365.24,891.16,1364.84,898.51,1364.84Z"/><path class="cls-4" d="M993.63,835.07l.33-.69-.33.69Z"/><path class="cls-8" d="M1216,817.8c0,9.58-7.31,17.21-16.6,17.24-9.8,0-16.73-6.93-16.73-16.81s7-17.22,16.39-17.47C1208,800.53,1215.93,808.46,1216,817.8Z"/><path class="cls-6" d="M1227.1,885.46c-.14,5.71-5.62,10.83-11.35,10.6a11,11,0,0,1-10.25-10.78,10.5,10.5,0,0,1,10.84-10.8A10.7,10.7,0,0,1,1227.1,885.46Z"/><path class="cls-13" d="M1395.75,979.14l3.19-2.09C1397.41,977,1396.11,977.38,1395.75,979.14Z"/><path class="cls-3" d="M1393.18,951.3q2.74-.31,5.54-.52c1.86-.15,3.73-.27,5.59-.4,17.5-1.21,35-2.54,52.57-1.94-.1-2.33.19-4.76-.35-7-7.9-33-16.09-65.92-23.82-99-4-17.26-10-34.08-12-51.8-2.39-2.64-2.83-6.13-3.68-9.32a260,260,0,0,0-23.3-57.27c-5.38-9.91-11.54-20-22.36-24.33-15.23-6.16-31.08-10.78-46.66-16.06-3.33,0-4.11,2.35-5,5-12.3,34.48-22.34,69.66-32.65,104.75-4.63,15.76-8.7,31.69-12.71,47.62-1,3.8-3.39,3.28-5.93,3.41-8.6.44-17-3.06-26.2-1,3,6.85,10.65,8,15.23,12.88s6.42,8.64,3.64,15c-2.49,5.69-3.65,11.94-5.59,17.88-1.54,4.71-.63,7.31,4.67,8.8,25.65,7.17,51.2,14.73,76.8,22.09,8.25,2.37,16.53,4.65,24.85,6.78,4.22,1.09,6.29,3.33,5.51,7.82-1.88,10.89-1.63,21.88-1.53,32.86C1372.06,955.85,1382.21,952.62,1393.18,951.3Z"/><path class="cls-7" d="M1398.72,950.78q-2.79.21-5.54.52Q1395.93,951,1398.72,950.78Z"/><path class="cls-7" d="M1393.18,951.3c-11,1.32-21.12,4.55-27.43,16.31h0C1372.06,955.85,1382.21,952.62,1393.18,951.3Z"/><path class="cls-4" d="M1463.29,967.89c-21.56,2.17-43.32,3-64.28,9.34l-.07-.18-3.19,2.09h0c-1,1.27-2.94,2-3.48,3.57a2.71,2.71,0,0,0-.14.88,4,4,0,0,0,.16,1.08c22.67,3,45.58.25,68.21,3.19.46.06.88.1,1.28.12C1449.58,986.85,1463.29,967.89,1463.29,967.89Z"/><path class="cls-4" d="M1392.13,983.6a2.71,2.71,0,0,1,.14-.88A2.71,2.71,0,0,0,1392.13,983.6Z"/><path class="cls-4" d="M1395.75,979.15h0c-1,1.28-2.94,2-3.48,3.58C1392.81,981.11,1394.75,980.42,1395.75,979.15Z"/><polygon class="cls-14" points="1463.29 967.89 1463.29 967.89 1463.29 967.89 1463.29 967.89"/><path class="cls-14" d="M1461.78,988c3.91.22,5.27-1.34,3.74-6.2-.18-.55-.33-1.11-.47-1.68-1-4-1.15-8.15-1.76-12.22h0S1449.58,986.85,1461.78,988Z"/><path class="cls-14" d="M1465.05,980.11c-1-4-1.15-8.15-1.76-12.22h0C1463.9,972,1464.08,976.16,1465.05,980.11Z"/><path class="cls-13" d="M1463.29,967.89c3.57-2.47,7.69-2.86,12.14-3.91h0c-4.45,1-8.57,1.43-12.14,3.91Z"/><path class="cls-7" d="M1475.43,964c-4.45,1-8.57,1.44-12.14,3.91A38.07,38.07,0,0,0,1475.43,964Z"/><path class="cls-5" d="M1479.23,950.58c-1.29,5.54-6.52,5.93-10.6,7.51-17.18,6.63-35.79,6.52-53.4,11.11-5.84,1.52-12.43,2.13-16.22,8,21-6.31,42.72-7.17,64.28-9.34,3.57-2.48,7.69-2.86,12.14-3.91a18.64,18.64,0,0,0,3.38-2.41C1482.22,955.39,1481.11,952.21,1479.23,950.58Z"/><polygon class="cls-4" points="1463.29 967.89 1466.9 988.6 1458.98 987.68 1452.94 982.98 1452.94 973.18 1459.04 969.72 1463.29 967.89"/><path class="cls-13" d="M1463.2,1006a31.54,31.54,0,0,1,3.63-.22A31.54,31.54,0,0,0,1463.2,1006Z"/><path class="cls-4" d="M1467.39,1005.79a5,5,0,0,0-.56,0,31.54,31.54,0,0,0-3.63.22c-1.49.14-3.27.34-5.42.53-5.92.52-11.93.1-17.91.11H1401c8.61,4,17.6,3.18,26.38,4.14,5.74.62,11.45,1.42,17.14,2.31,9.49,1.48,18.94,3.22,28.4,4.87C1472.93,1017.93,1463.2,1006,1467.39,1005.79Z"/><path class="cls-5" d="M1439.87,1006.62c6,0,12,.41,17.91-.11,2.15-.19,3.93-.39,5.42-.53a31.54,31.54,0,0,1,3.63-.22,5,5,0,0,1,.56,0c4.18-.19,18.23-2.18,18.23-2.18,4.23-1.77,4.5-7.28.09-11.07-10.87,8.83-24.09,9.79-37.2,11.31C1445.53,1004.19,1441.45,1001.72,1439.87,1006.62Z"/><path class="cls-5" d="M1467.39,1005.79a5,5,0,0,0-.56,0,5,5,0,0,1,.56,0Z"/><path class="cls-7" d="M1472.93,1017.94c-9.46-1.65-18.91-3.39-28.4-4.87-5.69-.89-11.4-1.69-17.14-2.31-8.78-1-17.77-.09-26.38-4.14h38.86c1.58-4.9,5.66-2.43,8.64-2.77,13.11-1.52,26.33-2.48,37.2-11.31a146.6,146.6,0,0,0-23.93-4.55h0c-.4,0-.82-.06-1.28-.12-22.63-2.94-45.54-.19-68.21-3.19a4,4,0,0,1-.16-1.08,2.71,2.71,0,0,1,.14-.88c.54-1.61,2.48-2.3,3.48-3.58h0c.36-1.76,1.66-2.11,3.19-2.09l.07.18c3.79-5.9,10.38-6.51,16.22-8,17.61-4.59,36.22-4.48,53.4-11.11,4.08-1.58,9.31-2,10.6-7.51a6.3,6.3,0,0,0-1.6-1c-6.76-2.33-13.88-.18-20.75-1.13-17.57-.6-35.07.73-52.57,1.94-1.86.13-3.73.25-5.59.4s-3.71.31-5.54.52c-11,1.32-21.12,4.55-27.43,16.31h0c-4.94,7.69-9.55,15.62-14.91,23-5.49,7.55-9.28,16.35-16.53,22.62-4.85,11.63-13,21.17-19.91,31.53-5.69,8.62-10.33,18-18.05,25.2-3.1,7.55-7.8,14.19-12.51,20.71-3.79,5.26-10.89,2.31-16,4.9,4.47,14.57,13.94,25.54,25.84,34.4,5.08,3.79,10.71,1.27,15.45-1.8,13.74-8.89,25.12-20.46,35.89-32.64,13.82-15.65,27-31.84,39.74-48.39a13.36,13.36,0,0,1,11.18-5c24.65,2.05,49.25,4.76,72.17,15.17,2.61-1.73,1.66-3.62-.08-5.08a27.36,27.36,0,0,0-8-4.73c-15.18-5.73-31-8.8-46.76-12.45-3.2-.75-8.28,1.21-9.53-4.33l-3.07-.45c13.55-.8,27-1.76,40.65-.58,15.52,1.35,31.22,3.19,46-4.13-1.89-3-5.31-3.54-8.2-4.91h0Z"/><path class="cls-7" d="M1444.53,1013.07c9.49,1.48,18.94,3.22,28.4,4.87h0C1463.47,1016.29,1454,1014.55,1444.53,1013.07Z"/><polygon class="cls-4" points="1472.93 1017.94 1472.93 1017.94 1472.93 1017.94 1472.93 1017.94"/><polygon class="cls-4" points="1472.93 1017.94 1472.93 1017.94 1472.93 1017.94 1472.93 1017.94"/><polygon class="cls-4" points="1469.6 1005.62 1474.04 1018.42 1466.13 1015.5 1463.29 1010.15 1463.2 1005.98 1469.6 1005.62"/><path class="cls-13" d="M739.71,1262.28c-1.41-4.43-2.65-8.91-3.79-13.44a82.38,82.38,0,0,0,3.79,13.43Z"/><path class="cls-3" d="M1244.51,1098.43c-12.5,1.76-25,3.29-37.5,5.4a96.33,96.33,0,0,1-11.58.88c-2.27,2.33-5.25,1.09-7.89,1.54-12.49,2.1-25,4.32-37.46,6.22-4.87.74-9.68,2.37-14.73,1.66-3.27,2.63-7.08,1-10.64,1.33-7,3.43-14.66,2.7-22,4-9,1.62-18,2.74-27,4.07-3.48,2.19-7.36,1.55-11.15,1.63l-31.45,4.74-26.95,4.72c-15.69,2.34-31.37,4.72-47.07,7-6.17.9-12.37,1.62-18.55,2.43-10.17,4.53-21.23,5.05-32,6.91-28.07,4.86-56.16,9.77-84.85,8.91-4.75-.15-9.53-.21-13.77-2.51s-5.83-5.41-.85-8.88c8.4-6.58,18.81-7,28.61-8.9,8.89-1.75,18-2.38,27-3.5-4.15-2.41-8.71-1.32-13.06-1.31-19.15,0-38.21-.88-56.91-5.3-8.62-2-10.13-4.64-7.87-11.38,5-9.54,15-7.77,23.21-10.06,2.66-.75,5.71-.16,8.58-.19l14.44-2c-14.85-2.15-29.54-4.31-44.05-7.69-4.87-1.13-9.67-2.55-13.88-5.25-2.48-1.59-5.85-3.51-2.3-7.27,5.16-4.5,11.78-4.16,17.78-4.39,23.73-.92,47.36,1,70.89,4.11a46.19,46.19,0,0,0,5.37,0c-3.92-3.54-8.62-2.72-12.12-4.86-25.07-7.4-49.84-15.57-73.19-27.55a36.79,36.79,0,0,1-10.73-7.76c-3.11-3.41-3-6,1.83-7.41,13.14-2.77,26,.4,38.86,2.16a543.23,543.23,0,0,1,73.55,15.8c19.18,5.42,32,16.79,39.43,35.05,4.34,10.67,9.05,21.18,10.76,32.7q1.49,3.95,3,7.91c15.19-2,30.38-4.1,45.59-5.94,4.32-.52,6-2.41,7-6.73,6.46-27.39,13.31-54.69,20.12-82,.82-3.28,2.13-6.43,3.22-9.64l-3.14-.06c-5.57,6.5-10.41,7.68-15.17,3.53-3-2.59-4.33-5.89-3.2-9.82a9.35,9.35,0,0,1,7.6-7.08c5.07-.92,8.42,1.74,10.85,5.9l4.63,0c1.47-14.62,6.86-28.35,9.79-42.65a12.47,12.47,0,0,0-1.81-10.19c-21.3-33.86-42.44-67.82-63.8-101.64-3.17-5-3-8.35,2.41-11.52,4.2-2.45,7.88-5.79,12.85-9.54-5.68-1-9.57,1.34-13.64,2C951,847.8,951,847.92,949,836.86c-13.59,9.56-20.58,23-21.56,39.25-1,17.29-1.14,34.63-1.71,51.94-.09,2.59-.48,5.18-.73,7.77.79,17.67,1.55,35.34,2.4,53,.19,4.15.79,8.27,1,12.42.71,12.53,6.68,18.28,19.3,18.44,2.76-4.25,6.24-7.24,11.71-5.72a9.21,9.21,0,0,1,7.2,9.21,9,9,0,0,1-6.26,9.09c-5.69,2.11-9.56-.59-12.52-5.24-17-.76-25.23-8.63-26.42-25.53-1.71-24.42-3.46-48.85-2.78-73.37l.12-3.24c-1-9.43-.35-18.82.57-28.21.33-10.13-.13-20.35,2.21-30.31,3.87-16.46,13.75-28.86,26.89-39-2.48-.27-3.15-1.78-3.8-4.13q-19-68.78-38.31-137.48c-1.09-3.91-2-7.86-3-11.79l-10.07,3.11c-33.64,12.4-69.16,19.58-101.14,36.57-15.74,9.3-23.77,23.22-27.27,41.13-8.69,44.51-16.5,89.15-22.2,134.14-.27,2.08-.82,4.12-1.23,6.17-.18,3.53.66,7.2-1.44,10.47q-4.29,40.59-8.56,81.2-3,28.53-4.39,57.19c-1.59,31.41-3.52,62.81-2.78,94.27.08,3.55.19,7.09.32,10.64s4.41,67.46,11.36,99.95c1.14,4.53,2.38,9,3.79,13.44a11.23,11.23,0,0,1,.47,1.42,127.71,127.71,0,0,0,12.37,27.39c5.12,8.33,11.44,15.59,20.38,20.12l25.06,0c24.33-1.29,47.65-7.91,71.19-13.41,35-8.18,69.45-18.6,103.81-29.18,7.64-2.85,15.23-5.9,23.51-6.38,2-3.45,5.93-3.08,9-4.12,16.39-5.5,32.85-10.79,49.28-16.16,48.48-16.35,96.67-33.53,144.3-52.23,25.23-9.91,50.9-18.83,75.12-31.19Z"/><path class="cls-4" d="M740.18,1263.7a11.23,11.23,0,0,0-.47-1.42C739.86,1262.75,740,1263.22,740.18,1263.7Z"/><path class="cls-10" d="M1039.59,866.88a57.52,57.52,0,0,0-47-47.63c-5.5-.94-7.15-2.55-6.87-8.33,2.13-42.68,5.06-85.26,12.72-127.37.47-2.57,1.17-5.1,1.76-7.65,1.6-11.66,5-22.88,8.32-34.12.7-2.37,1.83-4,4-4.92l-12.36,4.25c-2.73,10.16-5.25,19.57-7.78,29,0,1.68.27,3.49-1.86,4.25l-.36,1.55c1.35,9.3-1.95,18.08-3.21,27.07a1030,1030,0,0,0-9,107.83c-.19,5.29-1.09,8.05-7.06,8.42-4.59.28-9.08,2.18-13.61,3.36l-8.82,4.82c-13.14,10.11-23,22.51-26.89,39-2.34,10-1.88,20.18-2.21,30.31.25,9.41.68,18.83-.58,28.21,0,1.08-.07,2.16-.11,3.24.93,3.54.17,8.47,6.34,7.68.25-2.58.64-5.17.73-7.76.57-17.31.68-34.65,1.71-51.94,1-16.27,8-29.69,21.56-39.25h0l.46-.25a23.91,23.91,0,0,1,10.81-6.31c31.44-15.36,69.49,6,72.86,40.94,1.78,18.5,1.93,37.08,2.23,55.65,0,3.09-.71,6.3,1,9.22l5.89-1.56q.24-5.58.49-11.17c0-1.07,0-2.14,0-3.21C1041.94,902.4,1042.33,884.52,1039.59,866.88Z"/><path class="cls-10" d="M1013.59,636.5a9.39,9.39,0,0,0-1.06.36Z"/><path class="cls-10" d="M1179.58,641.52a428.53,428.53,0,0,1,9.37,62.75c3.24,23.44,4.18,47.05,5.4,70.63l8,.55c-.5-28.08-2.35-56.06-6.72-83.84a15.08,15.08,0,0,1,.16-3.13c-2.62-17.75-5.24-35.51-8-54.06l-11.38-3.61C1179.88,632.38,1179.41,637.61,1179.58,641.52Z"/><path class="cls-10" d="M1187.78,634.42l4.47,1.42-4.5-1.62Z"/><path class="cls-15" d="M1269.14,407.62c-1.22,17.15-24.2,41.39-35.72,40.57s-12.12-20-10.9-37.13,16.08-38.53,27.6-37.72S1270.36,390.47,1269.14,407.62Z"/><path class="cls-15" d="M950.72,412.91c2.18,17,26.5,39.95,37.95,38.48s11-20.64,8.79-37.69-18.24-37.56-29.7-36.09S948.53,395.86,950.72,412.91Z"/><path class="cls-16" d="M1250.12,373.34c-11.52-.81-26.39,20.57-27.6,37.72-1,14.38-.76,30.17,6.14,35.38h0s15.06-61.06,37.61-58.09C1262.91,379.89,1257,373.83,1250.12,373.34Z"/><path class="cls-15" d="M1232.89,397c0,103.59-55.46,197.32-123.87,197.32S985.15,500.58,985.15,397,1040.61,246.57,1109,246.57,1232.89,293.4,1232.89,397Z"/><path class="cls-13" d="M1109,246.57c-3,0-5.9.12-8.82.29l71,15.53C1152.91,251.74,1131.69,246.57,1109,246.57Z"/><path class="cls-13" d="M1001.78,377.53c-9.3,3.77,4.71,127.73,4.73,127.88,22.28,52.5,59.88,88.9,102.51,88.9,68.41,0,123.87-93.73,123.87-197.32a258.51,258.51,0,0,0-1.4-27.36C1198,382.62,1011.1,373.76,1001.78,377.53Z"/><path class="cls-13" d="M1052.58,259.28l47.37-12.4A121.39,121.39,0,0,0,1052.58,259.28Z"/><path class="cls-16" d="M1001.78,377.53c9.32-3.77,196.24,5.09,229.71-7.9-5.72-53.64-28.53-88.74-60.3-107.24l-71-15.53-.25,0-47.37,12.4c-40,20.18-67.43,64.91-67.43,137.71,0,39,7.88,76.67,21.36,108.42C1006.49,505.26,992.48,381.3,1001.78,377.53Z"/><polygon class="cls-17" points="1106.9 235.13 1099 223.75 1087.85 231.54 1065.2 245.24 1036.98 279.15 1016.42 321.78 1007.94 364.56 1035.47 364.56 1041.04 358.48 1070.78 304.24 1087.15 248.72 1105.85 242.8 1106.9 235.13"/><rect class="cls-18" x="1089.7" y="190.91" width="46.92" height="56.04"/><path class="cls-17" d="M1109,227.91c-3,0-6,.11-8.92.3C1021.74,265.85,1022,364.56,1022,364.56h223.62A136.64,136.64,0,0,0,1109,227.91Z"/><path class="cls-19" d="M1100.1,228.21A136.65,136.65,0,0,0,972.37,364.56H1022S1021.74,265.85,1100.1,228.21Z"/><path class="cls-19" d="M1093.66,281.83c-.63,4.41-1.39,8.57-2.11,12.7s-1.37,8.2-1.94,12.27-1,8.13-1.3,12.25c0,1-.13,2.07-.22,3.11l-.11,3.14-.09,1.6c0,.54,0,1.06,0,1.61,0,1.07,0,2.17-.15,3.3-.57-.94-1.07-1.93-1.56-2.94-.26-.5-.49-1-.71-1.53l-.54-1.57c-.33-1.06-.69-2.13-1-3.22s-.42-2.18-.61-3.29a46.51,46.51,0,0,1,0-13.33,54.12,54.12,0,0,1,3.45-12.79A39.39,39.39,0,0,1,1093.66,281.83Z"/><path class="cls-19" d="M1133.85,272.64A48.85,48.85,0,0,1,1144.54,284a57.91,57.91,0,0,1,7.17,14.06,50.57,50.57,0,0,1,2,7.69,43.82,43.82,0,0,1,.76,7.92,37.84,37.84,0,0,1-3,15.4,83.75,83.75,0,0,0-.76-15.12,71.1,71.1,0,0,0-1.43-7.26c-.58-2.4-1.3-4.76-2.11-7.09a108.85,108.85,0,0,0-5.88-13.7C1139.09,281.46,1136.59,277.06,1133.85,272.64Z"/><path class="cls-19" d="M1153,252.38a76.06,76.06,0,0,1,10.62,7.65,100.5,100.5,0,0,1,9.46,9.12,98.19,98.19,0,0,1,8.19,10.39,100.15,100.15,0,0,1,6.65,11.5,106.15,106.15,0,0,1,5.16,12.35,60.72,60.72,0,0,1,2.8,13.13c.12,2.24.35,4.46.27,6.7l-.06,3.34c-.08,1.11-.19,2.22-.3,3.33a63.12,63.12,0,0,1-1,6.57c-.46,2.17-1.07,4.3-1.74,6.4l-.63-.08c-.27-2.2-.3-4.36-.5-6.51l-.27-3.21c-.06-1.07-.17-2.13-.3-3.18s-.23-2.11-.32-3.16l-.44-3.14-.19-1.56c-.08-.52-.18-1-.27-1.56l-.5-3.09-.6-3.08c-.11-.51-.18-1-.27-1.54l-.34-1.52-.63-3.07-.71-3.05a77.57,77.57,0,0,0-3.76-12,100.24,100.24,0,0,0-30.65-40.19Z"/><path class="cls-17" d="M1113.29,228.05s73.55-4.48,116.88,37.94c0,0-57.34-38.89-101.38-24.8L1112,239.32Z"/><path class="cls-17" d="M1087.79,209.72A52,52,0,0,0,1172,172.59,95.88,95.88,0,0,0,1190.28,133c1.84-9,6.11-31.78-5.94-55.95-4.36-8.73-17.09-30.16-42.58-38.62-16-5.29-29.61-3.06-38.62-1.48-39.38,6.91-65,34.54-75.25,47C998.51,77,973.8,96.48,972.44,116.15c-1,14.6,10.75,30.69,29.21,37.62-15.76,12.21-19.26,33.46-9.91,47.53,7.15,10.75,21.07,16.23,35.16,13.87a34.06,34.06,0,0,0,60.89-5.45Z"/><path class="cls-19" d="M1026.9,215.17a34.06,34.06,0,0,0,60.89-5.45A52,52,0,0,0,1172,172.59,95.88,95.88,0,0,0,1190.28,133a98.92,98.92,0,0,0,2.24-22.06c-6.7,15.91-11.16,39.6-24.43,49.67,2.42,23-20.72,32-39.1,35.33-13,2.38-27-3.66-36.27-15-11,24-25,26.68-33.33,23.67-9.57-3.47-10.47-17.44-10.44-19.07a156.36,156.36,0,0,1-33.78,11.33c-10.48,2.2-14.5,3.15-23.43,4.42C998.89,212.05,1012.81,217.53,1026.9,215.17Z"/><path class="cls-20" d="M1002.17,110.05c17-9.28,31.41,1.6,51-7.15,15.48-6.92,11-15.75,27.68-28.93,26.69-21.1,51.63-9.15,74.14-29.47a66.44,66.44,0,0,0-13.23-6.09c-16-5.29-29.61-3.06-38.62-1.48-39.38,6.91-65,34.54-75.25,47C998.51,77,973.8,96.48,972.44,116.15c-.55,7.9,2.67,16.24,8.65,23.32C984.43,128.74,990.45,116.46,1002.17,110.05Z"/><path class="cls-19" d="M1031.52,74.13A109.47,109.47,0,0,1,1050.07,53a104.38,104.38,0,0,1,23.55-15.71,105.92,105.92,0,0,1,27-8.89,102.15,102.15,0,0,1,28.53-1.13l7.09,1.09a14.81,14.81,0,0,1,1.76.35l1.74.42,3.49.83a85.74,85.74,0,0,1,13.55,4.67,94.5,94.5,0,0,1,24.07,15.26,108,108,0,0,1,18.73,21.23,106.76,106.76,0,0,1,12.63,25.11,126.64,126.64,0,0,0-14.51-23.75,115.64,115.64,0,0,0-19.22-19.76,103.78,103.78,0,0,0-11.25-7.84,95.48,95.48,0,0,0-12.21-6.14,87.14,87.14,0,0,0-13-4.31l-3.32-.76-1.67-.39a13.66,13.66,0,0,0-1.67-.32l-6.76-1a100,100,0,0,0-27.26.83,109.59,109.59,0,0,0-26.24,7.82,111.38,111.38,0,0,0-23.65,14.16A130.53,130.53,0,0,0,1031.52,74.13Z"/><path class="cls-19" d="M980.66,149.53a9.73,9.73,0,0,1,2.36,5.18,13.16,13.16,0,0,1-.35,5.68,12.87,12.87,0,0,1-2.68,5,10.25,10.25,0,0,1-4.71,3.18c.44-2,1.05-3.49,1.49-5.05s.92-3,1.35-4.45.81-2.94,1.2-4.5S980.12,151.42,980.66,149.53Z"/><path class="cls-13" d="M1031,410.84l-43.13-41.21-15.54,7.9.19.62c10.7,3.43,23,20.78,24.9,35.55,2.18,17.05,2.67,36.22-8.79,37.69a12.35,12.35,0,0,1-5.26-.68c-.11.25-.21.52-.33.75L985,461.4h47.89Z"/><path class="cls-16" d="M988.67,451.39c11.46-1.47,11-20.64,8.79-37.69-1.89-14.77-14.2-32.12-24.9-35.55,1.88,6.15,17.31,57.94,10.85,72.56A12.35,12.35,0,0,0,988.67,451.39Z"/><path class="cls-21" d="M964.71,406.86s16.74-1.59,24,18.73"/><path class="cls-21" d="M1232.47,412.49s6.07-5.88,13.19-4.84"/><path class="cls-10" d="M1062.53,435.39c-5.63,4.21-9.71,1.69-13.28-3.05-1.41-5.1-2.24-10.21.11-15.25,1.5-3.2,3.69-5.94,7.49-6s6.14,2.57,7.62,5.78C1067.49,423.38,1066.15,429.52,1062.53,435.39Z"/><path class="cls-6" d="M1062.53,435.39c3.62-5.87,5-12,1.94-18.54-1.48-3.21-3.8-5.85-7.62-5.78s-6,2.82-7.49,6c-2.35,5-1.52,10.15-.11,15.25-5.07-7-4.93-20.24.64-26.26,3.51-3.8,7.83-5.38,12.57-1.8C1071.52,411.13,1071.53,427.85,1062.53,435.39Z"/><path class="cls-10" d="M1169.76,435.39c-5.63,4.21-9.71,1.69-13.28-3.05-1.41-5.1-2.24-10.21.11-15.25,1.5-3.2,3.69-5.94,7.49-6s6.14,2.57,7.62,5.78C1174.72,423.38,1173.38,429.52,1169.76,435.39Z"/><path class="cls-6" d="M1169.76,435.39c3.62-5.87,5-12,1.94-18.54-1.48-3.21-3.8-5.85-7.62-5.78s-6,2.82-7.49,6c-2.35,5-1.52,10.15-.11,15.25-5.07-7-4.93-20.24.64-26.26,3.51-3.8,7.83-5.38,12.57-1.8C1178.75,411.13,1178.76,427.85,1169.76,435.39Z"/><path class="cls-5" d="M1090.1,476.65c2.81,1,5.42,1.85,8,2.49a36,36,0,0,0,7.65,1.1,28.75,28.75,0,0,0,7.55-.86,67.25,67.25,0,0,0,7.86-2.73,16.81,16.81,0,0,1-6.49,6.19,19.23,19.23,0,0,1-4.36,1.65,19.89,19.89,0,0,1-4.68.48,20.16,20.16,0,0,1-8.88-2.38A17.67,17.67,0,0,1,1090.1,476.65Z"/><path class="cls-11" d="M1069.27,518.9a64.6,64.6,0,0,0,9,5,71,71,0,0,0,9.55,3.59,69.16,69.16,0,0,0,9.9,2.17,66.67,66.67,0,0,0,20.14-.27c1.67-.21,3.31-.64,5-1l2.46-.66,1.23-.32,1.21-.38a109.49,109.49,0,0,0,18.89-8.11,67.49,67.49,0,0,1-18.08,10.43,59.42,59.42,0,0,1-20.7,4.06,57.82,57.82,0,0,1-30.29-8.17A44.73,44.73,0,0,1,1069.27,518.9Z"/><path class="cls-17" d="M1032.89,390.48a20.79,20.79,0,0,1,6.52-8.17,24.59,24.59,0,0,1,9.64-4.63,17.26,17.26,0,0,1,2.66-.48,16.3,16.3,0,0,1,2.7-.22c.9,0,1.79,0,2.69.06s1.76.26,2.64.4a14,14,0,0,1,2.57.63c.84.28,1.67.57,2.49.88a16,16,0,0,1,2.33,1.19c.76.44,1.5.88,2.21,1.37-1.78,0-3.43-.23-5.08-.3-.83,0-1.64,0-2.45-.07-.4,0-.8-.07-1.2-.05l-1.2.06c-.8,0-1.58,0-2.37.06s-1.55.17-2.33.25a17.84,17.84,0,0,0-2.29.35,15.61,15.61,0,0,0-2.26.46,40.28,40.28,0,0,0-8.77,3.17A63.57,63.57,0,0,0,1032.89,390.48Z"/><path class="cls-17" d="M1194.47,387.39a62.9,62.9,0,0,0-9.21-3.57,40.24,40.24,0,0,0-9.18-1.67,14.79,14.79,0,0,0-2.31-.08,16.35,16.35,0,0,0-2.32,0c-.77,0-1.55.11-2.33.14s-1.56.23-2.35.33l-1.19.14c-.4.05-.78.18-1.18.25q-1.19.26-2.4.48c-1.62.34-3.2.85-5,1.13.62-.6,1.28-1.16,2-1.72a16.9,16.9,0,0,1,2.11-1.56c.75-.43,1.52-.86,2.3-1.28a14.11,14.11,0,0,1,2.43-1c.84-.29,1.68-.61,2.55-.84s1.75-.34,2.64-.5a16.1,16.1,0,0,1,2.69-.23,18.72,18.72,0,0,1,2.7,0,24.75,24.75,0,0,1,10.28,3A20.89,20.89,0,0,1,1194.47,387.39Z"/><circle class="cls-17" cx="980.81" cy="441.02" r="4.24"/><path class="cls-19" d="M985,441a4.23,4.23,0,0,0-4.23-4.24s5.36,4.52,0,8.48A4.23,4.23,0,0,0,985,441Z"/><path class="cls-22" d="M979.49,438.84a3.83,3.83,0,0,0,0,4.09S976.5,440.86,979.49,438.84Z"/><circle class="cls-17" cx="1237.8" cy="439.44" r="4.24"/><path class="cls-19" d="M1233.56,439.44a4.23,4.23,0,0,1,4.24-4.23s-5.37,4.52,0,8.47A4.24,4.24,0,0,1,1233.56,439.44Z"/><path class="cls-22" d="M1239.11,437.26a3.8,3.8,0,0,1,0,4.09S1242.1,439.28,1239.11,437.26Z"/></svg>