<svg id="Layer_1" data-name="Layer 1" xmlns="http://www.w3.org/2000/svg" viewBox="0 0 2740 1580"><defs><style>.cls-1,.cls-2,.cls-9{fill:#fff;}.cls-2{font-size:113.89px;font-family:Roboto-Bold, Roboto;font-weight:700;}.cls-2,.cls-8{letter-spacing:0.01em;}.cls-3{letter-spacing:0em;}.cls-4{letter-spacing:0.02em;}.cls-5{letter-spacing:0.02em;}.cls-6{letter-spacing:-0.04em;}.cls-7{letter-spacing:0em;}.cls-9{font-size:203.01px;font-family:Gotham-Black, Gotham Black;letter-spacing:0.04em;}.cls-10{letter-spacing:0.03em;}</style></defs><title>logo</title><path class="cls-1" d="M59.35,505.46c1.13-6.07,2.75-12.09,3.3-18.22q14.43-158.48,116.7-280.35C255.44,116.47,351.94,59,467.15,33.08c51-11.46,102.66-14.21,154.73-10.31,58.47,4.37,114.5,18.61,168.3,41.8,1.06.46,2.19.77,3.5,1.22,2.45-1.71,4.8-3.51,7.3-5.06,18.64-11.6,38.16-13,57.48-2.7,19.56,10.41,29.38,27.31,30.37,49.8,1.07,24.62-17.33,53.49-49,57.46-30.08,3.76-56.16-14.5-62.94-44-1.19-5.16-3.81-7.45-8.15-9.31a478.94,478.94,0,0,0-204.5-38.81C358.84,80.44,192.37,214.6,135,391.58a455.87,455.87,0,0,0-21.07,109.69C103.2,655,172.43,800.33,291.93,892c67.38,51.7,143.29,83.68,227.55,93.46,143.66,16.66,270.86-22.22,378.69-119.23,77.09-69.35,124.34-156,142.12-258.36,15.56-89.53,4.32-176-31.79-259.16-7.41-17.07-17.09-33.15-25.55-49.77-2.85-5.61-6.71-7.78-13.3-7.76-29.91.1-58.23-26.48-56.35-60.52,1.66-30.07,27.49-54.64,58.51-53.91,37.19.87,63.59,38.05,52.55,74.05-1,3.38-2.37,6.67-3.48,9.78,8.38,15.28,17.09,30.1,24.82,45.43A493.56,493.56,0,0,1,1097.1,488c17.18,201.75-85.86,383.52-249.43,480.44-63.61,37.69-132.15,61-205.68,69.33-105.32,11.94-205.51-5.32-300.32-53-2.88-1.45-5.79-2.83-9.91-4.83-.68,5.59-1.59,10.38-1.81,15.2-5,109.47,32.76,202.66,107.55,281.62a420.86,420.86,0,0,0,76,62.79c2.38,1.56,4.89,2.92,9.33,5.55-2.06-5.21-3.24-8.39-4.58-11.51-34.84-81.13-12-175.72,55.95-231.21,101.72-83.12,254.47-40.3,300,84.11a197.88,197.88,0,0,1-53,215.53c-1.52,1.38-3,2.83-4.38,4.17a6.06,6.06,0,0,0,.41,1.08c.14.21.37.49.6.52a35.88,35.88,0,0,0,4.38.43q520,0,1040.31,0c1.83-3.79,3.28-7.32,5.15-10.61,10.6-18.69,25.82-29.85,48.18-29.1,12.82.43,23.45,5.84,32.42,14.68,23.35,23,24.45,63.75,2.48,88.25-21.44,23.92-55.61,23.31-76.14-1.43-2.82-3.4-5.22-7.15-8.16-11.23h-9.5q-539.2,0-1078.41,0c-10.48,0-20.4,2.28-30.59,4.39-17,3.52-34,6-51.83,3.09-94.47-15.21-180-50.66-254.47-111.16C370,1296.9,318.94,1224.48,291.82,1135.84c-15-49.06-19.68-99.28-16.41-150.31.79-12.38,2.74-24.68,4.23-37.64-2.37-1.8-4.92-3.76-7.51-5.68C169.08,866.09,101.82,766.16,73,641.1c-5-21.58-6.86-43.86-10.26-65.81-1-6.1-2.22-12.15-3.35-18.22ZM555.08,1255.2c.17,20.64,3.57,37.88,11.26,56.3,35.77,85.69,141.34,113.52,213.32,56.23,65.21-51.89,72.14-151.2,14.76-211.65-49.72-52.38-128.21-58.79-184.5-14.36C573.46,1170.5,555.89,1209,555.08,1255.2Z"/><path class="cls-1" d="M2680.65,1199.49c-.59,1.6-1.55,3.17-1.71,4.82-5.8,59.1-50.51,124.18-130.3,135.83-85.59,12.49-161.56-41.8-177.43-126.87a215.58,215.58,0,0,1-3.66-38.85q-.43-157-.15-314.05c0-2.9.24-5.79.39-9.2h95.58c.07,3.68.22,7.4.22,11.12q0,151.69.06,303.38a104.75,104.75,0,0,0,1,15.94c4,25.64,22.3,44,47.91,48.18,14.12,2.33,27.85,1,40.76-5.35,19.45-9.61,29.91-25.47,31.56-47.07.35-4.72.21-9.48.21-14.23q0-150.35,0-300.7V850.7h95.57Z"/><path class="cls-1" d="M1005.46,527.62c-1.06,238.42-192.94,430-431.05,429-242.89-.94-429.91-199.49-428-432.86,2-236.44,195.66-427.84,433.12-426C809.94,99.67,1004.61,286,1005.46,527.62ZM539.21,251.71a63.53,63.53,0,0,0,22.4-2.84,13.58,13.58,0,0,0-5.27-4.7c-7.32-3.31-8.66-5.81-6.7-15.35,11.33,7.29,23.51,12.44,29.25,26,5-6.86,4.54-9.08-1.39-12.62-6.77-4-13.43-8.28-20.25-12.51,9.14-11.46,10.4-15.32,4.32-29.21,1.3-3.42,3.52-6.7,3.55-10s-2.08-6.71-3.5-10.74c4.78-1.47,9.51-3.93,14.31-4.1s9.4,2.05,14.24,3.26c.56-.52,1.54-1,1.81-1.73,3.54-9.83,10.4-14.78,22-14.42-1-2.09-1.49-4-2.65-5.35-2.9-3.33-6-6.45-9.19-9.55-2.56-2.51-3.45-5-2.16-8.71,1.88-5.43.27-11.83-3.94-14.28-8.56-5-17.52-9.85-28.19-9.69a403.22,403.22,0,0,0-76.75,8.58,351.32,351.32,0,0,0-49.45,13.78c0,6.15-3.72,9.68-7.83,12.62-1.65,1.19-5,2.09-6.36,1.22-4.22-2.72-7.25-.27-10.72,1.18-4.4,1.84-8.49,6-13.86,1.82-.77-.61-2.91,0-4.15.62-6.08,2.93-12.08,6.05-17.79,9,.83,11.18.86,11.22-7.56,17.66C363.25,189.29,353,196.89,343,204.65a73.77,73.77,0,0,0-10,8.69A41.57,41.57,0,0,1,313,226c-8.49,2.44-16.87,5.22-25.28,7.85a42.16,42.16,0,0,1-15.49,26.58,37.78,37.78,0,0,0-6.72,7.06c-6.07,8.31-11.94,16.77-17.8,25.23-1.73,2.5-3.78,3.64-6.79,2.64-1.57-.52-3.18-.93-5.22-1.52-2.8,8.08-5.18,15.64-8.11,23-1.13,2.82-3,6.45-5.48,7.39-5,1.94-7.34,5.64-9.68,9.8-28.75,51-43.86,106.14-47.83,164.23-4.78,69.89,7.15,137,36.4,200.86C279.2,869.87,463.11,966.79,648.31,932.87c126-23.08,221.32-91.61,285.87-202.23,27.88-47.79,42.44-100.13,48.82-154.87a67.75,67.75,0,0,0,0-7.68c-4,.27-7.88,1.73-10.28.46-7.79-4.11-16.13-8.15-22.22-14.25-7-7-14-12.35-23.76-14.32-3.22-.65-7.11-1.6-7.51-6.1,5.87-5.41,11.89-7.8,19.35-3.44a11.08,11.08,0,0,0,6.89,1c5.27-.88,8.82,1.72,12.87,4.43,7,4.69,11.94,10.46,13.47,18.9.18,1,1.08,1.84,1.61,2.7,17.7-8.48,15.18-23.87,14.37-38.61,0-.34-.82-.64-1.32-1l-5.27,3.93c-3.49-3.87-6.83-7.15-9.59-10.85-1.07-1.43-1.33-3.89-1.11-5.78.58-5,2.36-9.91,2.34-14.86,0-14.17-.71-28.33-1.27-42.49a53.68,53.68,0,0,0-1.3-7.45c5.12-3,5.62,3,9.39,4.35A267.84,267.84,0,0,0,968.53,402a7.84,7.84,0,0,0-1.36-2.29c-6.4-7.7-12.4-15.79-19.38-22.93s-8.67-16.07-11.67-24.65L938,351l17,18.88,1.54-1.3c-21.22-50.59-51.18-95.3-90.66-133.6,2.94,9,2.94,9,9.5,13.93,2.42,1.83,5.39,3.39,4,7.76-6.08-3.08-12.91-4.24-14.12-12.28-.22-1.45-2.09-2.85-3.5-3.85A16.25,16.25,0,0,1,855,229.41c-1.15-6.75-5.38-10.78-11.07-14.07-3.5-2-6.44-5.05-9.55-7.72-4.25-3.65-8-8-12.7-10.94-8.72-5.57-17.94-10.35-26.93-15.51-1.51-.87-3.75-1.73-4.14-3-1.49-5-5.87-6.42-9.6-8.57a414.49,414.49,0,0,0-114.7-44.72c-3.31-.75-6.68-1.2-10-1.8.86,2.32,2.06,3.86,3.55,4.21,12.72,3,21.85,11.09,30.49,20.31a21.32,21.32,0,0,0,10.6,5.7,36.86,36.86,0,0,1,16.49,8c5.72,4.79,12.12,5.52,18.76,1a13.18,13.18,0,0,1,6.54-1.9c5.49-.27,10.3,1.65,15,4.69,10.16,6.61,20.06,14,31.07,18.81,11.21,4.89,17.6,13.68,23.7,22.95,2.77,4.21,5.19,8.41,9,11.86s6.77,7.41,10.31,11c1.56,1.57,3.5,3.66,5.42,3.83,9.14.85,14.9,6.84,20.5,12.93,1.71,1.87,2.22,4.84,3.28,7.3-9.45-3.63-16.88-9.82-26.88-9.37-.15,2.32-.26,4.16-.4,6.47l-10-5.53,10.88,21.29h8.72c.54-2.78,1-5.2,1.54-7.95,5,1,6.54,4.23,8.28,7.83s3.8,8.27,6.94,9.62c8.73,3.73,15.61,9.7,22.37,15.85,5.86,5.34,12.3,10.74,16.15,17.45,5.41,9.42,8.72,20.05,12.78,30.23a23.8,23.8,0,0,1,1.56,6.88c.82,9.74,1.64,19.48,2.09,29.24.19,4.07,1.12,7.22,4.35,10.09,3.56,3.17,5.41,7.42,2.68,14.16a71.7,71.7,0,0,1-4.54-5.93c-1.35-2.25-2.09-4.95-3.71-6.95a5.08,5.08,0,0,0-4.54-1.34c-1.24.49-2.74,2.84-2.51,4.06,1.89,9.78,2.83,19.87,13.38,25.52a57.84,57.84,0,0,1,25.25,26.59,16.92,16.92,0,0,1,1.23,7.53,138,138,0,0,1-1.32,14c-.39,3-1.23,5.85-2.2,10.28-7.89-8.34-16.2-8.06-26-6.83,1.05,5.37,2.94,10.22,2.68,15-.31,5.66,2,8.93,6.34,11.44,6.34,3.71,12.73,7.34,19.24,10.75,2.7,1.41,5,2.65,6.05,5.89,1.83,5.46,4.27,10.71,6.45,16-10.25,2.73-16.93-.12-20.87-9.77a20.92,20.92,0,0,0-10.19-11.51c-3.46-1.84-6-6.29-7.81-10.11-2-4.21-2.42-9.17-4.17-13.55a27.29,27.29,0,0,0-5.53-8.77c-4.66-4.77-9.85-9-15-13.66-4.64,2.19-1.8,12-8.53,11.86-5.4-5.6-9.26-10.92-14.33-14.53-6.26-4.46-13.53-7.49-21-11.51-1,3.55-1.5,6.72-2.67,9.65-1.06,2.66-2.17,6.1-4.33,7.38-5.55,3.28-6,7.53-4.35,12.88,1.84,5.87,1.83,11.39-1.26,17.14-2.2,4.09-3.37,8.86-4.33,13.47-1.74,8.37-3.09,16.83-4.35,25.29a16.7,16.7,0,0,0,.55,6.69c1.38,5.1,3.82,10,4.55,15.16,1.73,12.39,3.65,25-3.62,37.18-3.51-2.24-8-3.56-9.66-6.48-3.24-5.72-8.52-8.87-13-13.07-1.29-1.21-3.24-2.18-3.75-3.66-2.7-7.8-9.64-10.82-15.7-15-3.53-2.44-7.1-5.47-9.28-9.07-4-6.55-6.93-13.72-10.29-20.64-.77-1.57-1.45-3.18-2.62-5.78-6.3,13.42-8.93,14.26-19.49,8.75-6-3.15-12.07-6.27-18.16-9.3s-12.24-4.15-18.38.42c-2.58,1.93-5.8,3-8.59,4.65a62.43,62.43,0,0,1-43.34,8.32,11.83,11.83,0,0,0-5.14.65c-13.26,4.07-25.76,2-37.76-4.45-2.35-1.26-4.49-3.22-7-3.83-2.3-.56-5.47-.53-7.24.7-1.38,1-1.82,4.25-1.51,6.33.26,1.78,1.91,3.61,3.38,4.91,5.91,5.2,12,10.2,18,15.31,6-6.14,7.64-5.41,13.73,7.48,4-2.57,8.43-4.49,11.49-7.74s4.69-7.84,7.09-12.1a33.13,33.13,0,0,1,5,2.23c4.9,3.26,9.55,6.18,15.91,6.93,4.57.53,8.88,4.48,12.92,7.44,1.24.91,2,3.73,1.59,5.37-.71,3.1-2.41,6-3.66,9-.76,1.83-2.42,3.94-2,5.49,1.78,6.78-1.62,11.32-5.66,15.92-2.14,2.43-3.6,5.46-5.73,7.91-8.26,9.53-16.67,19-25,28.4a3.78,3.78,0,0,1-.72.52c-10.21,7.61-20.35,15.3-30.67,22.75a27.77,27.77,0,0,1-9.37,4.75c-2.06.49-6.05-.58-6.77-2.09-3.9-8.25-11.77-14.26-13.16-24-.69-4.74-4.14-7.59-8.72-9.21a26.89,26.89,0,0,1-6.86-3.82c-5.14-3.82-10.12-7.87-16.3-12.72a68,68,0,0,1-1.44-7.06c-.71-5.86-3.53-9.52-9.2-11.85-3.3-1.36-6.06-4.47-8.57-7.24-6.12-6.76-11.42-14.22-21.44-16.08-3.14-.59-5.8-3.74-8.66-5.74-1.17-.81-2.3-1.65-3.45-2.48L500,551.42c3.66,4.9,7.34,9.79,11,14.71,5.79,7.84,11.46,15.77,17.34,23.55,1.91,2.52,4,5.17,6.55,6.89,3.89,2.6,6.54,5.26,7.15,10.36.8,6.75,4.38,11.92,11,15.09,3,1.42,6.12,4.36,7.25,7.35,3.45,9.11,10.4,12.68,19.09,15.22,11.27,3.31,21.51,8.58,26.2,21.28,15-3.7,29.49-7.55,41.22-18,2.81-2.5,5.76-4.23,9.64-2.6,4.14,1.73,4.2,5.51,4.11,9C660.22,667.78,657.9,681,652,693c-5.85,11.93-11.7,24-21.53,33.48a25.68,25.68,0,0,0-4.48,6.61c-6.51,12.31-13.24,24.52-19.14,37.12-1.88,4-3.17,9.86-1.61,13.57a39.94,39.94,0,0,0,11.65,15.26c4.26,3.39,6,6.81,6.4,11.77.5,6.82,1.5,13.52,7.39,18-2.17,7.2-8.1,9.79-13.33,12.95a59.68,59.68,0,0,0-19.77,19.3c3.17,2.64,6.55,4.68,8.91,7.57,4.46,5.46,3.6,9.19-2.2,13.08a25.25,25.25,0,0,1-2.27,1.41c-4,2.07-6.73,4.66-5.28,9.83a7.15,7.15,0,0,1-.71,5.15c-5.36,8.57-10.84,17-21.41,20.23-8.78,2.67-17.32,6-26.84,4.82a28.78,28.78,0,0,0-11.49.53c-6.83,2.09-12-.62-17.42-4-12.29-7.69-24.68-15.2-37-22.88a12.41,12.41,0,0,1-3.82-3.6c-4.27-6.64-10-11.63-16.61-15.81-5-3.16-9.77-6.7-14.88-9.68-8-4.64-10.37-12.58-12.64-20.57a8,8,0,0,1,.66-5.94c5.27-7.61,2.4-14-2.45-20.23-5.27-6.76-11.82-12.87-15.54-20.39-3.42-6.92-8.33-11.06-14.39-14.83-3.76-2.34-7.3-5.06-10.93-7.63a16.88,16.88,0,0,1-7.55-13.39c-.25-4.74-.34-9.48-.38-14.22-.08-10.54-6.72-17-17.14-15.53-6.34.87-11-.93-14.86-5.71-1.3-1.61-3-3-4-4.76-2.62-5-7-6.26-12-5.69-5.59.63-11.09,2-16.68,2.53-4.37.39-9.47,1.3-13.06-.46-5.55-2.72-10.8-2.12-16.38-2.06-3.43,0-7.73.22-10.13-1.62-6.29-4.81-11.87-10.58-17.51-16.2-8.42-8.42-15.15-17.94-18.3-29.65a8.42,8.42,0,0,0-1.65-3.13c-8.51-10.1-10.27-23.11-15-34.84a9.42,9.42,0,0,1,.15-5.79c4-12.61,6.35-25.22,2.18-38.31a15.69,15.69,0,0,1,2.68-15.09c2.85-3.76,4.81-8.19,7.57-12,5.09-7,8.82-15.13,18.11-18.58,4.37-1.63,9.2-5.43,8.53-11.32-.6-5.27,2.07-8.28,5.22-11.53,6.3-6.48,12.48-13.08,19.27-20.22-.83,0-.47-.11-.27,0,7.47,4.71,15,8.52,23.79,2.95a3.62,3.62,0,0,1,1.73-.34c14.5-.49,29-1.22,43.49-1.33,8.15-.06,12.26,5.08,11.58,13.26a56,56,0,0,1-1.17,6.1c-1.42,7.2-.57,8.64,5.92,11.8,8.76,4.26,17.51,8.54,26.09,13.15,12.41,6.67,12.34,6.79,19.36-5.49,4.37-7.65,8.22-9.39,15.95-5.76,10.67,5,22.12,6.56,33.48,8.48,2.61.44,6.62.06,8.1-1.62,4-4.54,8.7-4.53,13.77-4,6.26.64,11.24-1.85,14.29-6.95a43.35,43.35,0,0,0,5.61-13.93c1.38-7.52,0-15-2.91-22.41-4.24,1.1-6.21,2.71-5.67,6.45.25,1.75,1.1,4.06.32,5.16a15.56,15.56,0,0,1-5.78,4.46c-1,.47-2.61-.43-4.26-.78,1.1-2.89,2-5.21,3.08-8.08a30.82,30.82,0,0,0-16.19-1.39c-8.57,1.55-16.25-.89-20.57-8.76-2.1-3.84-2-8.88-3-13.56,9.41-3.67,14.79-12.78,24.84-14a5.26,5.26,0,0,0,2.92-2c5.88-7.11,13.28-7.43,20.91-4,10.62,4.75,19,.06,27.26-5.56,4.12-2.81,4.36-5.74.2-8.37a51.59,51.59,0,0,0-14.42-6.35c-5.56-1.44-10.55-3.2-14.09-7.06l3.93-9.72L507,419.52l-12.15,5.89c5.38,5.89,2.6,10-2,14.92-2.66-2.61-5.57-4.66-7.4-7.42-4.49-6.76-6.36-7.45-12-2.06-2.18,2.09-3.6,5.23-4.68,8.15s-.81,6.6-2.15,9.46c-3,6.44-3.22,12.46,1.41,18.44-3,1.1-6.19,1.3-7.57,3-3.37,4.14-7,4.8-11.73,3.25s-8.37,1.1-10.64,4.55-1.67,7.34,1,10.79a68,68,0,0,1,3.73,6.05,73.92,73.92,0,0,1-6.42,4.36c-4.3,2.28-7.6,1.62-9.51-2.82C423.11,487.19,420,478,416.5,469c-.91-2.31-1.91-5.41-3.77-6.37-7.54-3.87-12.68-10.2-18.09-16.27-1.87-2.09-3.59-4.36-6.63-2.9-3.38,1.62-3.29,4.54-2,7.6,3.05,7.17,6.58,13.91,13.51,18.26,3.4,2.13,6.53,4.69,9.54,6.88-5.48,9.37-10.42,17.83-15.54,26.57-5.2-1.71-11.35.16-13.54-7.54,2.49-.2,4.43-.45,6.37-.51,5.86-.16,8.92-2.64,10.85-8.39,1.68-5-1.06-7.84-4.64-10.37-1.93-1.38-4.13-2.45-5.82-4.06-5.27-5-11.3-9.33-13.45-17.05-1.4-5-5.62-5.88-10.55-3.79a41,41,0,0,1-10.87,2.76c-4.67.58-9,1.39-10.43,6.6-1,3.69-4,4.81-6.86,6.36-6.39,3.42-12,7.43-13.43,15.44-1,5.48-4.84,9-10.06,10.17a39.91,39.91,0,0,1-12.09.84c-11.32-.9-17.81-9-16.41-20.21.4-3.22.64-6.78,2.21-9.45,2.76-4.67,3.19-9.39,2.77-14.52a20.94,20.94,0,0,1,.6-4.73c4.48-2.66,8.47-1.45,12.54-.5,4.88,1.14,9.79,2.44,14.76,2.84,2.23.19,5.47-1,6.81-2.65,5.67-7.11,5.22-19.09-.42-26.69-1-1.36-2.07-2.68-3.6-4.65,1.78-1.8,3.67-4.93,4.85-4.68,6.31,1.32,10.48-3.39,15.66-5,8.76-2.7,17.08-6.67,23.28-14a12.82,12.82,0,0,1,5.8-3.9c6.7-2,13.83-3.14,16-13,8.05,8.59,16.79,7.2,25.71,5.4,4.27-.86,8.67-1.06,13.42-1.61,2.38-5.18,8.7-8.51,7.25-16.15-.34-1.78,3.16-4.69,5.4-6.41,1.7-1.3,4.21-1.54,6.16-2.18.34-8.88.39-8.77,8.2-11.69,3.29-1.23,7.32-1.46,10.74-6.94L439.56,337c-3.62-7-4.22-12.83.44-18.86,3.39-4.39,6.15-9.25,9.63-14.57l-6.41-2.68a35.81,35.81,0,0,1-14.63,19c-4.23,2.76-5.46,6.63-4.61,11.54.48,2.79,1.17,6,.25,8.51a148.57,148.57,0,0,1-8.56,18.53c-6.48,12-23.38,15.92-35.76,8.14l5.12-8.1,7.78,3.35c4.63-5.94,3.75-11.63,1.29-18.23-3.73,1.3-7,2.6-10.3,3.54-4.24,1.19-6.3-.92-5.07-5.06,1.09-3.66,1.57-7.84,3.71-10.79,4.85-6.67,7.58-15,16.73-18.47,4.92-1.85,9.59-6.29,12.69-10.74,8.53-12.26,18.86-21.08,33.15-26.73a49.74,49.74,0,0,1,27.61-2.63c6.29,1.05,12.33,4.09,18.23,6.78,1.76.81,3.79,3.51,3.7,5.24s-2.31,4.37-4.14,5c-3.24,1.11-6.89,1.23-10.38,1.33-2.56.08-5.14-.54-6.69,1.49,2.09,3.51,3.84,6.48,5.61,9.44,3.12,5.19,7.23,5.42,11.28.74,5-5.8,6.65-14.16,14.18-17.67l-3.36-10.3,1.33-1.24,7.51,4.42c9.21-10.9,11.17-13.61,32.24-16.49-1-3.39-1.88-6.69-2.8-10Z"/><path class="cls-1" d="M1731.64,1334.41h-102l-9.64-21.23c-2.28,1.22-3.84,2-5.31,2.85-85.07,51.06-191.07,27.63-249.56-53.35-22.64-31.35-36.23-66.48-42.94-104.32-9.76-55.11-8-109.81,8-163.65,11.54-38.76,30.81-73.17,60.61-101,41-38.24,89.76-56.07,145.62-51.13,55.5,4.91,100,31.13,134.19,74.93,24.16,31,38.64,66.48,46,104.86,11.09,58,9.55,115.6-7.83,172.3-3.72,12.14-8.88,23.87-14,35.5-2.14,4.84-2.18,8.64.18,13.3,11.11,21.94,21.71,44.14,33,66A37.13,37.13,0,0,1,1731.64,1334.41ZM1619.86,1088.7c-.76-7.06-1.38-19.54-3.56-31.75-4.66-26.2-14.86-49.94-34.23-68.92-35.53-34.81-89.21-34.62-124.63.33a110.74,110.74,0,0,0-27.68,45c-13.12,40.13-13,80.45.14,120.54a110.89,110.89,0,0,0,28.91,46.31c35.22,33.69,87.58,33.54,122.59-.33,11.69-11.32,20.12-24.79,26.26-39.77C1616.34,1139,1619.18,1116.73,1619.86,1088.7Z"/><path class="cls-1" d="M1945.67,1334.51h-101.8c-1.78-6.63-2.3-473-.46-485.6,11,0,22.17-.35,33.3.27,2.5.14,5.31,3.28,7.11,5.69,13.71,18.26,27.19,36.68,40.75,55q52,70.5,104.08,141c1.89,2.56,3.87,5.06,6.39,8.36,2.94-3.79,5.29-6.74,7.55-9.75Q2115.28,952.8,2187.82,856c4-5.37,8-7.72,14.71-7.28,8.53.57,17.14.14,25.53.14,1.92,7.18,2.25,475.81.43,485.38h-102.4V1121.58c-4.47.9-5.74,4.13-7.57,6.46q-36.29,46.17-72.41,92.44c-2.33,3-4.22,6.14-9,6.3-5.34.18-8.67-1.82-11.86-6q-35.82-46.52-72-92.76c-1.9-2.45-3.91-4.81-5.88-7.21l-1.72.76Z"/><path class="cls-1" d="M1227.72,851.26V957.67c-15,1.05-30-.07-45.41.7v267.81h47.75c2.33,6.81,2.9,96.27.87,108.11H1031.77V1226.56h49.28V958.19H1035.7V851.26Z"/><path class="cls-1" d="M284.77,278.25c9-14.57,18.26-27.78,30.1-39,5.83-5.51,12.33-9.11,21-6.47,1.18-2,2.56-3.63,3.17-5.5,1.09-3.39,2.93-5.69,6.48-6.58a7.61,7.61,0,0,0,3.13-1.61C359,210,369,200.49,379.72,191.9c4.41-3.52,10.32-5.29,15.73-7.42,3.13-1.23,6.61-1.57,11.23-2.6-8.88-4.15-9.68-4.31-20.41-4.28,5.05-5.87,9.29-10.64,17.79-9.84,5.67.54,11.55-1.73,17.35-1.82,3.19-.05,6.41,1.81,10.52,3.09-2.09,4.88-3.65,8.54-5.23,12.22H414.48c-.18.6-.36,1.2-.53,1.8l19.41,13.78c-5.67,8.21-10.36,16.1-20.67,18.71-8.44,2.13-15.56,6.58-20.1,14.8-3.34,6-8.69,10.2-15.56,12.52a15.62,15.62,0,0,0-7.24,5.9c-6,8.81-13.61,13.4-24.59,12.73a207.54,207.54,0,0,0-24.81.31,22.27,22.27,0,0,0-15.56,7.46,55.37,55.37,0,0,1-6.2,6.33C294.84,278.62,290.6,280.48,284.77,278.25Z"/><path class="cls-1" d="M683.23,797.21c10.35,3.5,11.45,12.24,10.88,19.82-1,12.88-3.87,25.64-6.26,38.39-1.27,6.74-5.29,10.78-12.51,11.86-5.91.89-16.62-2.73-18.65-8.28-1-2.76.16-7,1.73-9.84,2.35-4.23,4-7.1-.18-11.63s-2.06-11.29,3.85-13.76A21.17,21.17,0,0,0,675,809C676.32,803.82,679.42,800.83,683.23,797.21Z"/><path class="cls-1" d="M309.58,378.93c3.74-9.32,10.07-15.34,20.28-18.17l6.05,4c.17-.92.62-1.76.38-2.27-1.84-3.83-.75-7.15.82-10.88a9.81,9.81,0,0,1,8.9-6.17c4.63-.24,5.64,4.28,7.21,8.28l-8,6.13c.56,1.6.76,3.44,1.72,4.7,6.24,8.19,4.79,16.6,1,25.12-2.31,5.25-6.71,7.3-12.11,7.24s-10.51-.51-17.29-.87c6-1.45,8.49-4.52,9.47-9.37.81-4,2.53-7.62,6.76-9.8,2.45-1.27,4.05-4.15,2.73-8.69-2.47,2.22-4.21,4-6.18,5.52a50,50,0,0,1-7.24,4.68,44.64,44.64,0,0,1-7.46,2.74C314.1,381.85,311.37,382.89,309.58,378.93Z"/><path class="cls-1" d="M539.33,251.58c-6.44,3.5-12.84,1.25-18.8-.93-6.55-2.39-9.28-11.74-6.77-20,1.44-4.79,12-14.3,18.44-16-.42,5.95-4.25,9.79-7.12,13.91-5.47,7.87-2.59,17.85,6.43,21,2.5.87,5.06,1.53,7.65,2.24C539.21,251.71,539.33,251.58,539.33,251.58Z"/><path class="cls-1" d="M336.4,278.72c4.12,1.15,8,2.17,11.74,3.3,3.48,1,6.42,5.23,6.17,8.73-.31,4.33-3,6.09-7,6.22-4.38.15-8.82.78-13.13.29-5.31-.61-6.73-4.22-4-8.83C332.1,285.2,334.22,282.09,336.4,278.72Z"/><path class="cls-1" d="M845.05,566.72c4.81,4.51,8.2,7.32,11.14,10.54A8.18,8.18,0,0,1,855.6,589a6.84,6.84,0,0,1-10.6-1.76A29.29,29.29,0,0,1,841.24,575C841,572.77,843.31,570.28,845.05,566.72Z"/><path class="cls-1" d="M441.16,222.79c8.42-1.69,14.75-8.59,23.37-2.52-3.6,6.07-8.42-2.74-12,2.37l5.28,5.63c-2.09,6.62-8.06,5.92-13.7,8C443.18,231.9,442.33,228.05,441.16,222.79Z"/><path class="cls-1" d="M552.06,185.65c-7.33,2.36-14.17,6.91-22,.07.93-1.15,1.76-3.2,2.85-3.35,4.55-.62,9.18-.69,13.78-.92C549.1,181.34,551.53,181.25,552.06,185.65Z"/><path class="cls-1" d="M589.06,152.1c-5.83,1.67-9.84.93-11.78-4.09-.49-1.29,0-4.22.58-4.41,1.65-.5,4.28-.62,5.35.37C585.4,146,586.84,148.88,589.06,152.1Z"/><path class="cls-1" d="M910.69,319.82c2.2,5.23,10.4,6.91,8.44,14.6C915.76,329.88,910.44,326.5,910.69,319.82Z"/><text class="cls-2" transform="translate(1232.17 288.08)">I<tspan class="cls-3" x="34.91" y="0">N</tspan><tspan class="cls-4" x="115.42" y="0">TE</tspan><tspan class="cls-5" x="253.36" y="0">N</tspan><tspan class="cls-6" x="336.48" y="0">A</tspan><tspan x="408.15" y="0">TIO</tspan><tspan class="cls-5" x="595.57" y="0">N</tspan><tspan x="678.69" y="0">AL</tspan><tspan class="cls-4"><tspan x="0" y="132.58">QUIZ FOR</tspan><tspan x="0" y="265.15">MEDICAL</tspan><tspan x="0" y="397.73">UNDERGRAD</tspan><tspan class="cls-7" x="682.43" y="397.73">U</tspan><tspan class="cls-6" x="757.88" y="397.73">A</tspan><tspan class="cls-8" x="829.55" y="397.73">TES</tspan></tspan></text><text class="cls-9" transform="translate(2070.75 1523.78)">2<tspan class="cls-10" x="135.2" y="0">0</tspan><tspan x="289.9" y="0">20</tspan></text></svg>