<svg id="Layer_1" data-name="Layer 1" xmlns="http://www.w3.org/2000/svg" viewBox="0 0 1580 1580"><defs><style>.cls-1{fill:#f83246;}</style></defs><title>mission</title><path class="cls-1" d="M790,9.9C359.16,9.9,9.9,359.16,9.9,790S359.16,1570.1,790,1570.1s780.1-349.26,780.1-780.1S1220.84,9.9,790,9.9Zm300.15,419.72c.83-53.48,1.62-53.46,51-93,8.64,18.86-2.07,37.64,12.83,59.41,14.27-47.21-5.92-105.88,57.78-125.49,9,18.79,3.26,41.93,3.16,63.7-.1,23.56,9,31.94,31.73,30.61,21.44-1.25,43-.26,66.08-.26C1289.22,427,1234,417.29,1176.6,422c29.14,18.83,48.11,8,67.11,17.51-22.78,28.81-42.73,58-85.84,50.91-22.3-3.69-38.57,5.73-54.27,21.81q-98.1,100.43-198.44,198.64c-15.18,14.87-21.29,27-14.16,49.57,15.8,50-5.85,98.94-49.63,123.12-41.86,23.11-91.59,16.53-125.83-16.66C680.22,832.61,672.76,781,696.92,738c24.58-43.7,72.73-64.15,123.52-48.88,20,6,32,2.81,46.4-11.87,67.36-68.88,135.71-136.8,204.29-204.46C1083.7,460.37,1089.87,447.72,1090.15,429.62ZM641.36,941.33A211.94,211.94,0,0,0,885.8,979.11c81.19-41.31,134.33-132,110.46-219C979,697,1017.79,674.21,1049.12,640.78c14.32-15.29,20.65-4.56,26.71,7.56,23.23,46.43,33.19,95.92,33.87,143.26-3.28,146.1-97.09,267.38-233.39,305.88A318.51,318.51,0,0,1,522.38,965.2c-76.26-116.33-68.1-269.7,20.09-377.49s237.42-146,366.2-94c47.58,19.23,45.55,17.82,13.8,54.87C894,581.88,866.67,593.35,820.58,583,732.11,563.19,642.4,612.86,601,693.91A212.07,212.07,0,0,0,641.36,941.33ZM791,1321.79c-221.09.51-417.89-133.56-497.45-338.9a532.47,532.47,0,0,1,138-586.32c160.49-146.52,397.67-180.18,593-84.15,41.71,20.51,39.09,18.35,9.38,54.29-30.24,36.58-56.71,42.63-104,25C700.56,306,449.31,438,381.15,675,313.69,909.51,461,1154.06,700.58,1205.13c239.93,51.15,474.51-110.29,509.29-352,10.34-71.78,7-144.21-23.63-210.86-17.21-37.4-13.09-60.42,18.14-87.47,45.36-39.31,43.27-41.72,68.22,11.93C1436.1,918.39,1179.37,1320.9,791,1321.79Z"/></svg>