<svg id="Layer_1" data-name="Layer 1" xmlns="http://www.w3.org/2000/svg" viewBox="0 0 1980 980"><defs><style>.cls-1{fill:#f83246;}</style></defs><title>pattern1</title><path class="cls-1" d="M2644,940c-430.83,0-780.1,349.26-780.1,780.1s349.27,780.1,780.1,780.1,780.1-349.26,780.1-780.1S3074.81,940,2644,940Zm611.89,807.93c-112.49,141.31-240.27,264.15-413.71,328.77-62,23.1-126.25,35.84-172,34.35-184-.31-321.81-66.28-446.85-164.75-70.12-55.22-131.77-118.87-186-189.74-16.54-21.59-19.87-45.22-3.76-66.18,114.72-149.17,251.74-270.72,433.41-331.46s351.87-28.91,511.28,72.47c107.74,68.53,195.9,158.12,274.83,257.47C3268,1707.73,3269.79,1730.42,3255.86,1747.91Z"/><path class="cls-1" d="M-45.9-96C-61.36,1,196,168.55,319.6,142.41c104-22,179.94-22.14,277.06,26.67C711.09,226.58,720,290.16,810.8,368.28c151.2,130,277,83.16,478.09,159.36,205.76,78,187.87,203.43,423.31,338.65A1226.15,1226.15,0,0,0,2001,985.81l44.82-1434.26c-215.4,9.19-1415,63.08-1688.24,199.2C324.79-232.9-34.92-164.83-45.9-96Z"/></svg>