<svg id="Layer_1" data-name="Layer 1" xmlns="http://www.w3.org/2000/svg" xmlns:xlink="http://www.w3.org/1999/xlink" viewBox="0 0 1000 1000"><defs><style>.cls-1{fill:#db3143;}.cls-2{fill:#eaeaea;}.cls-3{fill:#e8e8e8;}.cls-4{fill:#f6fefc;}.cls-5{fill:#d12841;}.cls-6{fill:#fff;}.cls-11,.cls-7{fill:none;stroke-miterlimit:10;}.cls-7{stroke:#e2e2e2;stroke-width:1.98px;}.cls-8{fill:#f4425c;}.cls-9{fill:#e2e2e2;}.cls-10{fill:url(#linear-gradient);}.cls-11{stroke:#fff;stroke-linecap:round;stroke-width:3.3px;}</style><linearGradient id="linear-gradient" x1="297.92" y1="559.63" x2="521.47" y2="559.63" gradientTransform="translate(103.86 33.93)" gradientUnits="userSpaceOnUse"><stop offset="0" stop-color="#ef6145"/><stop offset="1" stop-color="#d12841"/></linearGradient></defs><title>register</title><path class="cls-1" d="M40.86,706.48C49.93,569.39,599,459.88,892.6,615c45,23.81,66.85,44.74,69.4,69.4,9.65,93.41-256.51,242.15-511,227.13C262.26,900.39,34.9,796.61,40.86,706.48Z"/><path class="cls-2" d="M390.19,657.17s-54.51-9.29-43.56-60.71l46.73,10.06,22.92,28-8.11,17.77Z"/><path class="cls-2" d="M780.09,200.39s-3.46-38.87-36.35-53.92,10.17,45.13,10.17,45.13L767.37,199Z"/><rect class="cls-3" x="403.69" y="120.38" width="327.04" height="570.72" rx="53.88" ry="53.88" transform="translate(106.7 -117.98) rotate(13.1)"/><path class="cls-4" d="M731.21,141.88,517.64,92.19A53.87,53.87,0,0,0,453,132.46L444,170.89l5.53,28L444,234.2l-17.28,60.11-12.18,3.21L348,583.37a53.89,53.89,0,0,0,40.27,64.69l213.57,49.69a53.9,53.9,0,0,0,64.7-40.27l104.9-450.91A53.87,53.87,0,0,0,731.21,141.88Z"/><rect class="cls-5" x="471.65" y="190.93" width="233.79" height="160.65" rx="33.79" ry="33.79" transform="translate(76.78 -126.31) rotate(13.1)"/><rect class="cls-6" x="537.53" y="287.14" width="93.07" height="6.76" rx="3.38" ry="3.38" transform="translate(81.03 -124.8) rotate(13.1)"/><rect class="cls-6" x="512.03" y="301.27" width="137.49" height="6.76" rx="3.38" ry="3.38" transform="translate(84.15 -123.68) rotate(13.1)"/><line class="cls-7" x1="401.99" y1="351.49" x2="720.53" y2="425.6"/><circle class="cls-8" cx="439.26" cy="397.05" r="20.92"/><rect class="cls-9" x="472.66" y="415.77" width="198.84" height="6.76" rx="3.38" ry="3.38" transform="translate(109.86 -118.73) rotate(13.1)"/><rect class="cls-9" x="470.25" y="420.94" width="108.34" height="6.76" rx="3.38" ry="3.38" transform="translate(109.8 -107.8) rotate(13.1)"/><line class="cls-7" x1="385.1" y1="424.1" x2="703.63" y2="498.21"/><circle class="cls-8" cx="422.07" cy="470.95" r="20.92"/><rect class="cls-9" x="455.47" y="489.67" width="198.84" height="6.76" rx="3.38" ry="3.38" transform="translate(126.16 -112.91) rotate(13.1)"/><rect class="cls-9" x="453.06" y="494.84" width="108.34" height="6.76" rx="3.38" ry="3.38" transform="translate(126.09 -101.98) rotate(13.1)"/><line class="cls-7" x1="367.45" y1="499.93" x2="685.99" y2="574.04"/><rect class="cls-10" x="401.78" y="567.25" width="223.55" height="52.63" rx="26.32" ry="26.32" transform="translate(147.86 -100.93) rotate(13.1)"/><path class="cls-5" d="M758.55,244.07a22.29,22.29,0,0,0-26.76,16.66l-19.36,83.2a22.29,22.29,0,0,0,16.66,26.77l4,.93L762.54,245Z"/><polygon class="cls-8" points="414.55 297.52 430.61 271.26 444.01 224.56 444.01 170.89 414.55 297.52"/><path class="cls-5" d="M445.3,281.78l19.36-83.2A22.29,22.29,0,0,0,448,171.82l-4-.93L414.55,297.52l4,.93A22.29,22.29,0,0,0,445.3,281.78Z"/><rect class="cls-9" x="460.14" y="638.01" width="84.59" height="6.76" rx="3.38" ry="3.38" transform="translate(158.41 -97.17) rotate(13.1)"/><line class="cls-11" x1="488.99" y1="587.85" x2="538.13" y2="599.28"/><polyline class="cls-11" points="530.38 584.1 540.12 599.74 524.3 609.59"/></svg>