<svg id="Layer_1" data-name="Layer 1" xmlns="http://www.w3.org/2000/svg" viewBox="0 0 2000 2000"><defs><style>.cls-1{fill:#6ddaae;}.cls-2,.cls-3{fill:none;stroke-miterlimit:10;stroke-width:23.51px;}.cls-2{stroke:#2064fa;}.cls-3{stroke:#f2792d;}</style></defs><title>semis</title><path class="cls-1" d="M1589.91,605c0-3.46,5.15-9.52,8.44-9.93,23-2.82,46.42-7.73,69.08-5.52,20.17,2,39.6,12.05,59.24,18.87,60.13,20.88,120.08,25.88,178-5.83,9.45-5.17,20.06-18.67,20.3-28.55,1.74-74.64,1.45-149.33.78-224-.19-20.48-17-31.69-35.69-23.28-54,24.37-105.51,19.85-159.22-3.62-51-22.29-105.22-26.85-159-6.42-28.69,10.91-32.61,17.36-32.61,47.74q0,238.26,0,476.51v22.84h50.33C1589.54,776.34,1589.44,690.66,1589.91,605Zm.48-241.44c41.33-15.94,81.85-9.16,121.39,6.19,39.76,15.44,79.45,29.54,123.12,23.42,12.48-1.75,24.88-4,40.22-6.56,0,57.05.31,112.59-.59,168.12-.07,4.36-7.8,10.75-13.19,12.52-39.59,13-78.72,8.57-116.64-6.69-38.45-15.48-77.15-28.44-119.48-23.35-11.23,1.35-22.4,3.28-34.83,5.13Z"/><path class="cls-2" d="M1269.74,863.75h473a40,40,0,0,1,40,40v870a40,40,0,0,1-40,40h-513a0,0,0,0,1,0,0v-910A40,40,0,0,1,1269.74,863.75Z"/><path class="cls-2" d="M716.74,1121.75h513a0,0,0,0,1,0,0v692a0,0,0,0,1,0,0h-553a0,0,0,0,1,0,0v-652A40,40,0,0,1,716.74,1121.75Z"/><path class="cls-2" d="M163.74,1365.25h513a0,0,0,0,1,0,0v448.5a0,0,0,0,1,0,0h-513a40,40,0,0,1-40-40v-368.5A40,40,0,0,1,163.74,1365.25Z"/><polyline class="cls-3" points="833.24 1027.25 984.24 583.25 1176.24 626.25 1242.24 783.25"/><polyline class="cls-3" points="821.24 473.25 1005.24 362.25 1181.24 531.25 1364.24 531.25"/><circle class="cls-3" cx="1134.24" cy="264.25" r="78"/></svg>