<svg id="Layer_1" data-name="Layer 1" xmlns="http://www.w3.org/2000/svg" viewBox="0 0 1580 1580"><defs><style>.cls-1{fill:#f83246;}</style></defs><title>vision</title><path class="cls-1" d="M790,9.9C359.16,9.9,9.9,359.16,9.9,790S359.16,1570.1,790,1570.1s780.1-349.26,780.1-780.1S1220.84,9.9,790,9.9Zm611.88,807.93C1289.39,959.14,1161.61,1082,988.18,1146.6c-62,23.1-126.25,35.84-172,34.35-184-.31-321.81-66.28-446.86-164.75C299.2,961,237.55,897.33,183.28,826.46c-16.54-21.59-19.88-45.22-3.76-66.18C294.24,611.11,431.26,489.56,612.93,428.82s351.87-28.91,511.27,72.47C1232,569.82,1320.11,659.41,1399,758.76,1414,777.65,1415.81,800.34,1401.88,817.83Z"/><path class="cls-1" d="M1062.94,794.37c.17-150.69-121.27-273-271.85-273.66-147.34-.7-272.63,121.75-273.22,267-.61,154,119.14,278.12,269.14,278.88C939.55,1067.39,1062.76,945.82,1062.94,794.37ZM795.09,908.2c-71-.06-123.51-53.26-123.31-125C672,713.3,727.66,656.8,795.72,657.49c37.92.39,39.5,1.93,39.56,38.47.07,40.68.07,40.68,40.57,40.68,42.1,0,46,3.88,46.63,46.57C923.55,852.74,867,908.26,795.09,908.2Z"/><path class="cls-1" d="M671.91,470.09c-10.52,0-14.2-.83-17.34.12C476.5,524,342.62,638.39,229.05,780.7c-6.73,8.43-4,14,1.48,20.84,101,127.29,220.42,231,373.34,291.92a105,105,0,0,0,12.54,4.45c3.47.9,7.63,3.23,10.64-1.62C366.41,943.73,401.42,580.47,671.91,470.09Z"/><path class="cls-1" d="M1234.4,654.91c-89.34-84.56-188.09-153.77-308.8-186.46-8.45-2.29-16.84-7.47-28.2-.57,9.17,3.67,16.43,6.47,23.62,9.46,149.34,62.21,235.42,218.94,205.56,378.2-20.35,108.56-82.16,188.34-177.49,242.86l3.55,4.83c7.54-2.56,15.17-4.89,22.6-7.72,155.4-59.23,270.4-169.65,374.11-294.61,9.32-11.24,3-16.6-3.33-24.45A1225.6,1225.6,0,0,0,1234.4,654.91Z"/><path class="cls-1" d="M937.57,1101.81c4.58,5.23,9.86,3,15.07,1.42l-3.55-4.83Z"/></svg>